<mxfile host="app.diagrams.net" modified="2023-12-20T22:12:52.751Z" agent="Mozilla/5.0 (Windows NT 10.0; Win64; x64) AppleWebKit/537.36 (KHTML, like Gecko) Chrome/120.0.0.0 Safari/537.36" etag="ixWudu9nuFntvCt4qh1g" version="22.1.11" type="github">
  <diagram name="Página-1" id="mqC5vg_ItCvTOxu2iG_7">
    <mxGraphModel dx="2607" dy="1396" grid="1" gridSize="10" guides="1" tooltips="1" connect="1" arrows="1" fold="1" page="1" pageScale="1" pageWidth="827" pageHeight="1169" math="0" shadow="0">
      <root>
        <mxCell id="0" />
        <mxCell id="1" parent="0" />
        <mxCell id="Vu5qPpD-ALyookZz_Jn8-2" value="&lt;b style=&quot;font-weight:normal;&quot; id=&quot;docs-internal-guid-340f38ec-7fff-d86b-6998-d4230fa5c980&quot;&gt;&lt;p dir=&quot;ltr&quot; style=&quot;line-height:1.38;text-align: center;margin-top:0pt;margin-bottom:0pt;&quot;&gt;&lt;span style=&quot;font-size: 11pt; font-family: Arial, sans-serif; color: rgb(0, 0, 0); background-color: transparent; font-weight: 400; font-style: normal; font-variant: normal; text-decoration: none; vertical-align: baseline;&quot;&gt;&lt;span style=&quot;white-space: pre;&quot;&gt;&amp;nbsp;&amp;nbsp;&amp;nbsp;&amp;nbsp;&lt;/span&gt;&lt;/span&gt;&lt;span style=&quot;font-size: 18pt; font-family: Arial, sans-serif; color: rgb(0, 0, 0); background-color: transparent; font-weight: 700; font-style: normal; font-variant: normal; text-decoration: none; vertical-align: baseline;&quot;&gt;2º Forma Normal&lt;/span&gt;&lt;/p&gt;&lt;p dir=&quot;ltr&quot; style=&quot;line-height:1.38;text-align: center;margin-top:0pt;margin-bottom:0pt;&quot;&gt;&lt;span style=&quot;font-size: 12pt; font-family: Arial, sans-serif; color: rgb(0, 0, 0); background-color: transparent; font-weight: 400; font-style: normal; font-variant: normal; text-decoration: none; vertical-align: baseline;&quot;&gt;Vemos que esta tabla no está en 2º Forma Normal, ya que si bien ha sido ya pasada a 1º Forma Normal, todavía hay atributos que no pertenecen a la clave principal.&lt;/span&gt;&lt;/p&gt;&lt;br&gt;&lt;div dir=&quot;ltr&quot; style=&quot;margin-left:0pt;&quot; align=&quot;center&quot;&gt;&lt;table style=&quot;border:none;border-collapse:collapse;&quot;&gt;&lt;colgroup&gt;&lt;col width=&quot;116&quot;&gt;&lt;col width=&quot;116&quot;&gt;&lt;col width=&quot;132&quot;&gt;&lt;col width=&quot;132&quot;&gt;&lt;col width=&quot;132&quot;&gt;&lt;col width=&quot;91&quot;&gt;&lt;col width=&quot;98&quot;&gt;&lt;col width=&quot;59&quot;&gt;&lt;col width=&quot;50&quot;&gt;&lt;col width=&quot;50&quot;&gt;&lt;col width=&quot;75&quot;&gt;&lt;col width=&quot;75&quot;&gt;&lt;col width=&quot;98&quot;&gt;&lt;col width=&quot;98&quot;&gt;&lt;col width=&quot;108&quot;&gt;&lt;col width=&quot;108&quot;&gt;&lt;col width=&quot;97&quot;&gt;&lt;col width=&quot;92&quot;&gt;&lt;col width=&quot;92&quot;&gt;&lt;col width=&quot;92&quot;&gt;&lt;col width=&quot;92&quot;&gt;&lt;col width=&quot;92&quot;&gt;&lt;col width=&quot;92&quot;&gt;&lt;/colgroup&gt;&lt;tbody&gt;&lt;tr style=&quot;height:0pt&quot;&gt;&lt;td style=&quot;border-left:solid #000000 1pt;border-right:solid #000000 1pt;border-bottom:solid #000000 1pt;border-top:solid #000000 1pt;vertical-align:top;background-color:#9fc5e8;padding:5pt 5pt 5pt 5pt;overflow:hidden;overflow-wrap:break-word;&quot;&gt;&lt;p dir=&quot;ltr&quot; style=&quot;line-height:1.2;margin-top:0pt;margin-bottom:0pt;&quot;&gt;&lt;span style=&quot;font-size: 11pt; font-family: Arial, sans-serif; color: rgb(0, 0, 0); background-color: rgb(159, 197, 232); font-weight: 700; font-style: normal; font-variant: normal; text-decoration: none; vertical-align: baseline;&quot;&gt;DNI Estudiante&lt;/span&gt;&lt;/p&gt;&lt;/td&gt;&lt;td style=&quot;border-left:solid #000000 1pt;border-right:solid #000000 1pt;border-bottom:solid #000000 1pt;border-top:solid #000000 1pt;vertical-align:top;background-color:#9fc5e8;padding:5pt 5pt 5pt 5pt;overflow:hidden;overflow-wrap:break-word;&quot;&gt;&lt;p dir=&quot;ltr&quot; style=&quot;line-height:1.2;margin-top:0pt;margin-bottom:0pt;&quot;&gt;&lt;span style=&quot;font-size: 11pt; font-family: Arial, sans-serif; color: rgb(0, 0, 0); background-color: rgb(159, 197, 232); font-weight: 700; font-style: normal; font-variant: normal; text-decoration: none; vertical-align: baseline;&quot;&gt;ID Profesores&lt;/span&gt;&lt;/p&gt;&lt;/td&gt;&lt;td style=&quot;border-left:solid #000000 1pt;border-right:solid #000000 1pt;border-bottom:solid #000000 1pt;border-top:solid #000000 1pt;vertical-align:top;background-color:#9fc5e8;padding:5pt 5pt 5pt 5pt;overflow:hidden;overflow-wrap:break-word;&quot;&gt;&lt;p dir=&quot;ltr&quot; style=&quot;line-height:1.2;margin-top:0pt;margin-bottom:0pt;&quot;&gt;&lt;span style=&quot;font-size: 11pt; font-family: Arial, sans-serif; color: rgb(0, 0, 0); background-color: rgb(159, 197, 232); font-weight: 700; font-style: normal; font-variant: normal; text-decoration: none; vertical-align: baseline;&quot;&gt;Apellidos&amp;nbsp; Profesores&lt;/span&gt;&lt;/p&gt;&lt;/td&gt;&lt;td style=&quot;border-left:solid #000000 1pt;border-right:solid #000000 1pt;border-bottom:solid #000000 1pt;border-top:solid #000000 1pt;vertical-align:top;background-color:#9fc5e8;padding:5pt 5pt 5pt 5pt;overflow:hidden;overflow-wrap:break-word;&quot;&gt;&lt;p dir=&quot;ltr&quot; style=&quot;line-height:1.2;margin-top:0pt;margin-bottom:0pt;&quot;&gt;&lt;span style=&quot;font-size: 11pt; font-family: Arial, sans-serif; color: rgb(0, 0, 0); background-color: rgb(159, 197, 232); font-weight: 700; font-style: normal; font-variant: normal; text-decoration: none; vertical-align: baseline;&quot;&gt;Nombre&amp;nbsp; Profesores&lt;/span&gt;&lt;/p&gt;&lt;/td&gt;&lt;td style=&quot;border-left:solid #000000 1pt;border-right:solid #000000 1pt;border-bottom:solid #000000 1pt;border-top:solid #000000 1pt;vertical-align:top;background-color:#9fc5e8;padding:5pt 5pt 5pt 5pt;overflow:hidden;overflow-wrap:break-word;&quot;&gt;&lt;p dir=&quot;ltr&quot; style=&quot;line-height:1.2;margin-top:0pt;margin-bottom:0pt;&quot;&gt;&lt;span style=&quot;font-size: 11pt; font-family: Arial, sans-serif; color: rgb(0, 0, 0); background-color: rgb(159, 197, 232); font-weight: 700; font-style: normal; font-variant: normal; text-decoration: none; vertical-align: baseline;&quot;&gt; DNI Profesores&amp;nbsp;&lt;/span&gt;&lt;/p&gt;&lt;/td&gt;&lt;td style=&quot;border-left:solid #000000 1pt;border-right:solid #000000 1pt;border-bottom:solid #000000 1pt;border-top:solid #000000 1pt;vertical-align:top;background-color:#9fc5e8;padding:5pt 5pt 5pt 5pt;overflow:hidden;overflow-wrap:break-word;&quot;&gt;&lt;p dir=&quot;ltr&quot; style=&quot;line-height:1.2;margin-top:0pt;margin-bottom:0pt;&quot;&gt;&lt;span style=&quot;font-size: 11pt; font-family: Arial, sans-serif; color: rgb(0, 0, 0); background-color: rgb(159, 197, 232); font-weight: 700; font-style: normal; font-variant: normal; text-decoration: none; vertical-align: baseline;&quot;&gt;Profesor es tutor&lt;/span&gt;&lt;/p&gt;&lt;/td&gt;&lt;/tr&gt;&lt;tr style=&quot;height:46.39892578125pt&quot;&gt;&lt;td style=&quot;border-left:solid #000000 1pt;border-right:solid #000000 1pt;border-bottom:solid #000000 1pt;border-top:solid #000000 1pt;vertical-align:top;padding:5pt 5pt 5pt 5pt;overflow:hidden;overflow-wrap:break-word;&quot;&gt;&lt;p dir=&quot;ltr&quot; style=&quot;line-height:1.2;margin-top:0pt;margin-bottom:0pt;&quot;&gt;&lt;span style=&quot;font-size: 12pt; font-family: Arial, sans-serif; color: rgb(0, 0, 0); background-color: transparent; font-weight: 400; font-style: normal; font-variant: normal; text-decoration: none; vertical-align: baseline;&quot;&gt;23467664H&lt;/span&gt;&lt;/p&gt;&lt;/td&gt;&lt;td style=&quot;border-left:solid #000000 1pt;border-right:solid #000000 1pt;border-bottom:solid #000000 1pt;border-top:solid #000000 1pt;vertical-align:top;padding:5pt 5pt 5pt 5pt;overflow:hidden;overflow-wrap:break-word;&quot;&gt;&lt;p dir=&quot;ltr&quot; style=&quot;line-height:1.2;margin-top:0pt;margin-bottom:0pt;&quot;&gt;&lt;span style=&quot;font-size: 12pt; font-family: Arial, sans-serif; color: rgb(0, 0, 0); background-color: transparent; font-weight: 400; font-style: normal; font-variant: normal; text-decoration: none; vertical-align: baseline;&quot;&gt;1&lt;/span&gt;&lt;/p&gt;&lt;/td&gt;&lt;td style=&quot;border-left:solid #000000 1pt;border-right:solid #000000 1pt;border-bottom:solid #000000 1pt;border-top:solid #000000 1pt;vertical-align:top;padding:5pt 5pt 5pt 5pt;overflow:hidden;overflow-wrap:break-word;&quot;&gt;&lt;p dir=&quot;ltr&quot; style=&quot;line-height:1.2;margin-top:0pt;margin-bottom:0pt;&quot;&gt;&lt;span style=&quot;font-size: 12pt; font-family: Arial, sans-serif; color: rgb(0, 0, 0); background-color: transparent; font-weight: 400; font-style: normal; font-variant: normal; text-decoration: none; vertical-align: baseline;&quot;&gt;Doe&lt;/span&gt;&lt;/p&gt;&lt;/td&gt;&lt;td style=&quot;border-left:solid #000000 1pt;border-right:solid #000000 1pt;border-bottom:solid #000000 1pt;border-top:solid #000000 1pt;vertical-align:top;padding:5pt 5pt 5pt 5pt;overflow:hidden;overflow-wrap:break-word;&quot;&gt;&lt;p dir=&quot;ltr&quot; style=&quot;line-height:1.2;margin-top:0pt;margin-bottom:0pt;&quot;&gt;&lt;span style=&quot;font-size: 12pt; font-family: Arial, sans-serif; color: rgb(0, 0, 0); background-color: transparent; font-weight: 400; font-style: normal; font-variant: normal; text-decoration: none; vertical-align: baseline;&quot;&gt;Olivia&lt;/span&gt;&lt;/p&gt;&lt;/td&gt;&lt;td style=&quot;border-left:solid #000000 1pt;border-right:solid #000000 1pt;border-bottom:solid #000000 1pt;border-top:solid #000000 1pt;vertical-align:top;padding:5pt 5pt 5pt 5pt;overflow:hidden;overflow-wrap:break-word;&quot;&gt;&lt;p dir=&quot;ltr&quot; style=&quot;line-height:1.2;margin-top:0pt;margin-bottom:0pt;&quot;&gt;&lt;span style=&quot;font-size: 12pt; font-family: Arial, sans-serif; color: rgb(0, 0, 0); background-color: transparent; font-weight: 400; font-style: normal; font-variant: normal; text-decoration: none; vertical-align: baseline;&quot;&gt;47281935O&lt;/span&gt;&lt;/p&gt;&lt;/td&gt;&lt;td style=&quot;border-left:solid #000000 1pt;border-right:solid #000000 1pt;border-bottom:solid #000000 1pt;border-top:solid #000000 1pt;vertical-align:top;padding:5pt 5pt 5pt 5pt;overflow:hidden;overflow-wrap:break-word;&quot;&gt;&lt;p dir=&quot;ltr&quot; style=&quot;line-height:1.2;margin-top:0pt;margin-bottom:0pt;&quot;&gt;&lt;span style=&quot;font-size: 12pt; font-family: Arial, sans-serif; color: rgb(0, 0, 0); background-color: transparent; font-weight: 400; font-style: normal; font-variant: normal; text-decoration: none; vertical-align: baseline;&quot;&gt;no&lt;/span&gt;&lt;/p&gt;&lt;/td&gt;&lt;/tr&gt;&lt;tr style=&quot;height:46.39892578125pt&quot;&gt;&lt;td style=&quot;border-left:solid #000000 1pt;border-right:solid #000000 1pt;border-bottom:solid #000000 1pt;border-top:solid #000000 1pt;vertical-align:top;padding:5pt 5pt 5pt 5pt;overflow:hidden;overflow-wrap:break-word;&quot;&gt;&lt;p dir=&quot;ltr&quot; style=&quot;line-height:1.2;margin-top:0pt;margin-bottom:0pt;&quot;&gt;&lt;span style=&quot;font-size: 12pt; font-family: Arial, sans-serif; color: rgb(0, 0, 0); background-color: transparent; font-weight: 400; font-style: normal; font-variant: normal; text-decoration: none; vertical-align: baseline;&quot;&gt;23467664H&lt;/span&gt;&lt;/p&gt;&lt;/td&gt;&lt;td style=&quot;border-left:solid #000000 1pt;border-right:solid #000000 1pt;border-bottom:solid #000000 1pt;border-top:solid #000000 1pt;vertical-align:top;padding:5pt 5pt 5pt 5pt;overflow:hidden;overflow-wrap:break-word;&quot;&gt;&lt;p dir=&quot;ltr&quot; style=&quot;line-height:1.2;margin-top:0pt;margin-bottom:0pt;&quot;&gt;&lt;span style=&quot;font-size: 12pt; font-family: Arial, sans-serif; color: rgb(0, 0, 0); background-color: transparent; font-weight: 400; font-style: normal; font-variant: normal; text-decoration: none; vertical-align: baseline;&quot;&gt;1&lt;/span&gt;&lt;/p&gt;&lt;/td&gt;&lt;td style=&quot;border-left:solid #000000 1pt;border-right:solid #000000 1pt;border-bottom:solid #000000 1pt;border-top:solid #000000 1pt;vertical-align:top;padding:5pt 5pt 5pt 5pt;overflow:hidden;overflow-wrap:break-word;&quot;&gt;&lt;p dir=&quot;ltr&quot; style=&quot;line-height:1.2;margin-top:0pt;margin-bottom:0pt;&quot;&gt;&lt;span style=&quot;font-size: 12pt; font-family: Arial, sans-serif; color: rgb(0, 0, 0); background-color: transparent; font-weight: 400; font-style: normal; font-variant: normal; text-decoration: none; vertical-align: baseline;&quot;&gt;Doe&lt;/span&gt;&lt;/p&gt;&lt;/td&gt;&lt;td style=&quot;border-left:solid #000000 1pt;border-right:solid #000000 1pt;border-bottom:solid #000000 1pt;border-top:solid #000000 1pt;vertical-align:top;padding:5pt 5pt 5pt 5pt;overflow:hidden;overflow-wrap:break-word;&quot;&gt;&lt;p dir=&quot;ltr&quot; style=&quot;line-height:1.2;margin-top:0pt;margin-bottom:0pt;&quot;&gt;&lt;span style=&quot;font-size: 12pt; font-family: Arial, sans-serif; color: rgb(0, 0, 0); background-color: transparent; font-weight: 400; font-style: normal; font-variant: normal; text-decoration: none; vertical-align: baseline;&quot;&gt;Olivia&lt;/span&gt;&lt;/p&gt;&lt;/td&gt;&lt;td style=&quot;border-left:solid #000000 1pt;border-right:solid #000000 1pt;border-bottom:solid #000000 1pt;border-top:solid #000000 1pt;vertical-align:top;padding:5pt 5pt 5pt 5pt;overflow:hidden;overflow-wrap:break-word;&quot;&gt;&lt;p dir=&quot;ltr&quot; style=&quot;line-height:1.2;margin-top:0pt;margin-bottom:0pt;&quot;&gt;&lt;span style=&quot;font-size: 12pt; font-family: Arial, sans-serif; color: rgb(0, 0, 0); background-color: transparent; font-weight: 400; font-style: normal; font-variant: normal; text-decoration: none; vertical-align: baseline;&quot;&gt;47281935O&lt;/span&gt;&lt;/p&gt;&lt;/td&gt;&lt;td style=&quot;border-left:solid #000000 1pt;border-right:solid #000000 1pt;border-bottom:solid #000000 1pt;border-top:solid #000000 1pt;vertical-align:top;padding:5pt 5pt 5pt 5pt;overflow:hidden;overflow-wrap:break-word;&quot;&gt;&lt;p dir=&quot;ltr&quot; style=&quot;line-height:1.2;margin-top:0pt;margin-bottom:0pt;&quot;&gt;&lt;span style=&quot;font-size: 12pt; font-family: Arial, sans-serif; color: rgb(0, 0, 0); background-color: transparent; font-weight: 400; font-style: normal; font-variant: normal; text-decoration: none; vertical-align: baseline;&quot;&gt;no&lt;/span&gt;&lt;/p&gt;&lt;/td&gt;&lt;/tr&gt;&lt;tr style=&quot;height:46.39892578125pt&quot;&gt;&lt;td style=&quot;border-left:solid #000000 1pt;border-right:solid #000000 1pt;border-bottom:solid #000000 1pt;border-top:solid #000000 1pt;vertical-align:top;padding:5pt 5pt 5pt 5pt;overflow:hidden;overflow-wrap:break-word;&quot;&gt;&lt;p dir=&quot;ltr&quot; style=&quot;line-height:1.2;margin-top:0pt;margin-bottom:0pt;&quot;&gt;&lt;span style=&quot;font-size: 12pt; font-family: Arial, sans-serif; color: rgb(0, 0, 0); background-color: transparent; font-weight: 400; font-style: normal; font-variant: normal; text-decoration: none; vertical-align: baseline;&quot;&gt;576456321J&lt;/span&gt;&lt;/p&gt;&lt;/td&gt;&lt;td style=&quot;border-left:solid #000000 1pt;border-right:solid #000000 1pt;border-bottom:solid #000000 1pt;border-top:solid #000000 1pt;vertical-align:top;padding:5pt 5pt 5pt 5pt;overflow:hidden;overflow-wrap:break-word;&quot;&gt;&lt;p dir=&quot;ltr&quot; style=&quot;line-height:1.2;margin-top:0pt;margin-bottom:0pt;&quot;&gt;&lt;span style=&quot;font-size: 12pt; font-family: Arial, sans-serif; color: rgb(0, 0, 0); background-color: transparent; font-weight: 400; font-style: normal; font-variant: normal; text-decoration: none; vertical-align: baseline;&quot;&gt;2&lt;/span&gt;&lt;/p&gt;&lt;/td&gt;&lt;td style=&quot;border-left:solid #000000 1pt;border-right:solid #000000 1pt;border-bottom:solid #000000 1pt;border-top:solid #000000 1pt;vertical-align:top;padding:5pt 5pt 5pt 5pt;overflow:hidden;overflow-wrap:break-word;&quot;&gt;&lt;p dir=&quot;ltr&quot; style=&quot;line-height:1.2;margin-top:0pt;margin-bottom:0pt;&quot;&gt;&lt;span style=&quot;font-size: 12pt; font-family: Arial, sans-serif; color: rgb(0, 0, 0); background-color: transparent; font-weight: 400; font-style: normal; font-variant: normal; text-decoration: none; vertical-align: baseline;&quot;&gt;Jones&lt;/span&gt;&lt;/p&gt;&lt;/td&gt;&lt;td style=&quot;border-left:solid #000000 1pt;border-right:solid #000000 1pt;border-bottom:solid #000000 1pt;border-top:solid #000000 1pt;vertical-align:top;padding:5pt 5pt 5pt 5pt;overflow:hidden;overflow-wrap:break-word;&quot;&gt;&lt;p dir=&quot;ltr&quot; style=&quot;line-height:1.2;margin-top:0pt;margin-bottom:0pt;&quot;&gt;&lt;span style=&quot;font-size: 12pt; font-family: Arial, sans-serif; color: rgb(0, 0, 0); background-color: transparent; font-weight: 400; font-style: normal; font-variant: normal; text-decoration: none; vertical-align: baseline;&quot;&gt;Mason&lt;/span&gt;&lt;/p&gt;&lt;/td&gt;&lt;td style=&quot;border-left:solid #000000 1pt;border-right:solid #000000 1pt;border-bottom:solid #000000 1pt;border-top:solid #000000 1pt;vertical-align:top;padding:5pt 5pt 5pt 5pt;overflow:hidden;overflow-wrap:break-word;&quot;&gt;&lt;p dir=&quot;ltr&quot; style=&quot;line-height:1.2;margin-top:0pt;margin-bottom:0pt;&quot;&gt;&lt;span style=&quot;font-size: 12pt; font-family: Arial, sans-serif; color: rgb(0, 0, 0); background-color: transparent; font-weight: 400; font-style: normal; font-variant: normal; text-decoration: none; vertical-align: baseline;&quot;&gt;91456728P&lt;/span&gt;&lt;/p&gt;&lt;/td&gt;&lt;td style=&quot;border-left:solid #000000 1pt;border-right:solid #000000 1pt;border-bottom:solid #000000 1pt;border-top:solid #000000 1pt;vertical-align:top;padding:5pt 5pt 5pt 5pt;overflow:hidden;overflow-wrap:break-word;&quot;&gt;&lt;p dir=&quot;ltr&quot; style=&quot;line-height:1.2;margin-top:0pt;margin-bottom:0pt;&quot;&gt;&lt;span style=&quot;font-size: 12pt; font-family: Arial, sans-serif; color: rgb(0, 0, 0); background-color: transparent; font-weight: 400; font-style: normal; font-variant: normal; text-decoration: none; vertical-align: baseline;&quot;&gt;si&lt;/span&gt;&lt;/p&gt;&lt;/td&gt;&lt;/tr&gt;&lt;tr style=&quot;height:46.39892578125pt&quot;&gt;&lt;td style=&quot;border-left:solid #000000 1pt;border-right:solid #000000 1pt;border-bottom:solid #000000 1pt;border-top:solid #000000 1pt;vertical-align:top;padding:5pt 5pt 5pt 5pt;overflow:hidden;overflow-wrap:break-word;&quot;&gt;&lt;p dir=&quot;ltr&quot; style=&quot;line-height:1.2;margin-top:0pt;margin-bottom:0pt;&quot;&gt;&lt;span style=&quot;font-size: 12pt; font-family: Arial, sans-serif; color: rgb(0, 0, 0); background-color: transparent; font-weight: 400; font-style: normal; font-variant: normal; text-decoration: none; vertical-align: baseline;&quot;&gt;576456321J&lt;/span&gt;&lt;/p&gt;&lt;/td&gt;&lt;td style=&quot;border-left:solid #000000 1pt;border-right:solid #000000 1pt;border-bottom:solid #000000 1pt;border-top:solid #000000 1pt;vertical-align:top;padding:5pt 5pt 5pt 5pt;overflow:hidden;overflow-wrap:break-word;&quot;&gt;&lt;p dir=&quot;ltr&quot; style=&quot;line-height:1.2;margin-top:0pt;margin-bottom:0pt;&quot;&gt;&lt;span style=&quot;font-size: 12pt; font-family: Arial, sans-serif; color: rgb(0, 0, 0); background-color: transparent; font-weight: 400; font-style: normal; font-variant: normal; text-decoration: none; vertical-align: baseline;&quot;&gt;2&lt;/span&gt;&lt;/p&gt;&lt;/td&gt;&lt;td style=&quot;border-left:solid #000000 1pt;border-right:solid #000000 1pt;border-bottom:solid #000000 1pt;border-top:solid #000000 1pt;vertical-align:top;padding:5pt 5pt 5pt 5pt;overflow:hidden;overflow-wrap:break-word;&quot;&gt;&lt;p dir=&quot;ltr&quot; style=&quot;line-height:1.2;margin-top:0pt;margin-bottom:0pt;&quot;&gt;&lt;span style=&quot;font-size: 12pt; font-family: Arial, sans-serif; color: rgb(0, 0, 0); background-color: transparent; font-weight: 400; font-style: normal; font-variant: normal; text-decoration: none; vertical-align: baseline;&quot;&gt;Jones&lt;/span&gt;&lt;/p&gt;&lt;/td&gt;&lt;td style=&quot;border-left:solid #000000 1pt;border-right:solid #000000 1pt;border-bottom:solid #000000 1pt;border-top:solid #000000 1pt;vertical-align:top;padding:5pt 5pt 5pt 5pt;overflow:hidden;overflow-wrap:break-word;&quot;&gt;&lt;p dir=&quot;ltr&quot; style=&quot;line-height:1.2;margin-top:0pt;margin-bottom:0pt;&quot;&gt;&lt;span style=&quot;font-size: 12pt; font-family: Arial, sans-serif; color: rgb(0, 0, 0); background-color: transparent; font-weight: 400; font-style: normal; font-variant: normal; text-decoration: none; vertical-align: baseline;&quot;&gt;Mason&lt;/span&gt;&lt;/p&gt;&lt;/td&gt;&lt;td style=&quot;border-left:solid #000000 1pt;border-right:solid #000000 1pt;border-bottom:solid #000000 1pt;border-top:solid #000000 1pt;vertical-align:top;padding:5pt 5pt 5pt 5pt;overflow:hidden;overflow-wrap:break-word;&quot;&gt;&lt;p dir=&quot;ltr&quot; style=&quot;line-height:1.2;margin-top:0pt;margin-bottom:0pt;&quot;&gt;&lt;span style=&quot;font-size: 12pt; font-family: Arial, sans-serif; color: rgb(0, 0, 0); background-color: transparent; font-weight: 400; font-style: normal; font-variant: normal; text-decoration: none; vertical-align: baseline;&quot;&gt;91456728P&lt;/span&gt;&lt;/p&gt;&lt;/td&gt;&lt;td style=&quot;border-left:solid #000000 1pt;border-right:solid #000000 1pt;border-bottom:solid #000000 1pt;border-top:solid #000000 1pt;vertical-align:top;padding:5pt 5pt 5pt 5pt;overflow:hidden;overflow-wrap:break-word;&quot;&gt;&lt;p dir=&quot;ltr&quot; style=&quot;line-height:1.2;margin-top:0pt;margin-bottom:0pt;&quot;&gt;&lt;span style=&quot;font-size: 12pt; font-family: Arial, sans-serif; color: rgb(0, 0, 0); background-color: transparent; font-weight: 400; font-style: normal; font-variant: normal; text-decoration: none; vertical-align: baseline;&quot;&gt;si&lt;/span&gt;&lt;/p&gt;&lt;/td&gt;&lt;/tr&gt;&lt;tr style=&quot;height:46.39892578125pt&quot;&gt;&lt;td style=&quot;border-left:solid #000000 1pt;border-right:solid #000000 1pt;border-bottom:solid #000000 1pt;border-top:solid #000000 1pt;vertical-align:top;padding:5pt 5pt 5pt 5pt;overflow:hidden;overflow-wrap:break-word;&quot;&gt;&lt;p dir=&quot;ltr&quot; style=&quot;line-height:1.2;margin-top:0pt;margin-bottom:0pt;&quot;&gt;&lt;span style=&quot;font-size: 12pt; font-family: Arial, sans-serif; color: rgb(0, 0, 0); background-color: transparent; font-weight: 400; font-style: normal; font-variant: normal; text-decoration: none; vertical-align: baseline;&quot;&gt;576456321J&lt;/span&gt;&lt;/p&gt;&lt;/td&gt;&lt;td style=&quot;border-left:solid #000000 1pt;border-right:solid #000000 1pt;border-bottom:solid #000000 1pt;border-top:solid #000000 1pt;vertical-align:top;padding:5pt 5pt 5pt 5pt;overflow:hidden;overflow-wrap:break-word;&quot;&gt;&lt;p dir=&quot;ltr&quot; style=&quot;line-height:1.2;margin-top:0pt;margin-bottom:0pt;&quot;&gt;&lt;span style=&quot;font-size: 12pt; font-family: Arial, sans-serif; color: rgb(0, 0, 0); background-color: transparent; font-weight: 400; font-style: normal; font-variant: normal; text-decoration: none; vertical-align: baseline;&quot;&gt;2&lt;/span&gt;&lt;/p&gt;&lt;/td&gt;&lt;td style=&quot;border-left:solid #000000 1pt;border-right:solid #000000 1pt;border-bottom:solid #000000 1pt;border-top:solid #000000 1pt;vertical-align:top;padding:5pt 5pt 5pt 5pt;overflow:hidden;overflow-wrap:break-word;&quot;&gt;&lt;p dir=&quot;ltr&quot; style=&quot;line-height:1.2;margin-top:0pt;margin-bottom:0pt;&quot;&gt;&lt;span style=&quot;font-size: 12pt; font-family: Arial, sans-serif; color: rgb(0, 0, 0); background-color: transparent; font-weight: 400; font-style: normal; font-variant: normal; text-decoration: none; vertical-align: baseline;&quot;&gt;Jones&lt;/span&gt;&lt;/p&gt;&lt;/td&gt;&lt;td style=&quot;border-left:solid #000000 1pt;border-right:solid #000000 1pt;border-bottom:solid #000000 1pt;border-top:solid #000000 1pt;vertical-align:top;padding:5pt 5pt 5pt 5pt;overflow:hidden;overflow-wrap:break-word;&quot;&gt;&lt;p dir=&quot;ltr&quot; style=&quot;line-height:1.2;margin-top:0pt;margin-bottom:0pt;&quot;&gt;&lt;span style=&quot;font-size: 12pt; font-family: Arial, sans-serif; color: rgb(0, 0, 0); background-color: transparent; font-weight: 400; font-style: normal; font-variant: normal; text-decoration: none; vertical-align: baseline;&quot;&gt;Mason&lt;/span&gt;&lt;/p&gt;&lt;/td&gt;&lt;td style=&quot;border-left:solid #000000 1pt;border-right:solid #000000 1pt;border-bottom:solid #000000 1pt;border-top:solid #000000 1pt;vertical-align:top;padding:5pt 5pt 5pt 5pt;overflow:hidden;overflow-wrap:break-word;&quot;&gt;&lt;p dir=&quot;ltr&quot; style=&quot;line-height:1.2;margin-top:0pt;margin-bottom:0pt;&quot;&gt;&lt;span style=&quot;font-size: 12pt; font-family: Arial, sans-serif; color: rgb(0, 0, 0); background-color: transparent; font-weight: 400; font-style: normal; font-variant: normal; text-decoration: none; vertical-align: baseline;&quot;&gt;91456728P&lt;/span&gt;&lt;/p&gt;&lt;/td&gt;&lt;td style=&quot;border-left:solid #000000 1pt;border-right:solid #000000 1pt;border-bottom:solid #000000 1pt;border-top:solid #000000 1pt;vertical-align:top;padding:5pt 5pt 5pt 5pt;overflow:hidden;overflow-wrap:break-word;&quot;&gt;&lt;p dir=&quot;ltr&quot; style=&quot;line-height:1.2;margin-top:0pt;margin-bottom:0pt;&quot;&gt;&lt;span style=&quot;font-size: 12pt; font-family: Arial, sans-serif; color: rgb(0, 0, 0); background-color: transparent; font-weight: 400; font-style: normal; font-variant: normal; text-decoration: none; vertical-align: baseline;&quot;&gt;si&lt;/span&gt;&lt;/p&gt;&lt;/td&gt;&lt;/tr&gt;&lt;tr style=&quot;height:46.39892578125pt&quot;&gt;&lt;td style=&quot;border-left:solid #000000 1pt;border-right:solid #000000 1pt;border-bottom:solid #000000 1pt;border-top:solid #000000 1pt;vertical-align:top;padding:5pt 5pt 5pt 5pt;overflow:hidden;overflow-wrap:break-word;&quot;&gt;&lt;p dir=&quot;ltr&quot; style=&quot;line-height:1.2;margin-top:9pt;margin-bottom:0pt;&quot;&gt;&lt;span style=&quot;font-size: 12pt; font-family: Arial, sans-serif; color: rgb(17, 17, 17); background-color: transparent; font-weight: 400; font-style: normal; font-variant: normal; text-decoration: none; vertical-align: baseline;&quot;&gt;87654321B&lt;/span&gt;&lt;/p&gt;&lt;/td&gt;&lt;td style=&quot;border-left:solid #000000 1pt;border-right:solid #000000 1pt;border-bottom:solid #000000 1pt;border-top:solid #000000 1pt;vertical-align:top;padding:5pt 5pt 5pt 5pt;overflow:hidden;overflow-wrap:break-word;&quot;&gt;&lt;p dir=&quot;ltr&quot; style=&quot;line-height:1.2;margin-top:0pt;margin-bottom:0pt;&quot;&gt;&lt;span style=&quot;font-size: 12pt; font-family: Arial, sans-serif; color: rgb(0, 0, 0); background-color: transparent; font-weight: 400; font-style: normal; font-variant: normal; text-decoration: none; vertical-align: baseline;&quot;&gt;3&lt;/span&gt;&lt;/p&gt;&lt;/td&gt;&lt;td style=&quot;border-left:solid #000000 1pt;border-right:solid #000000 1pt;border-bottom:solid #000000 1pt;border-top:solid #000000 1pt;vertical-align:top;padding:5pt 5pt 5pt 5pt;overflow:hidden;overflow-wrap:break-word;&quot;&gt;&lt;p dir=&quot;ltr&quot; style=&quot;line-height:1.2;margin-top:0pt;margin-bottom:0pt;&quot;&gt;&lt;span style=&quot;font-size: 12pt; font-family: Arial, sans-serif; color: rgb(0, 0, 0); background-color: transparent; font-weight: 400; font-style: normal; font-variant: normal; text-decoration: none; vertical-align: baseline;&quot;&gt;Wilson&lt;/span&gt;&lt;/p&gt;&lt;/td&gt;&lt;td style=&quot;border-left:solid #000000 1pt;border-right:solid #000000 1pt;border-bottom:solid #000000 1pt;border-top:solid #000000 1pt;vertical-align:top;padding:5pt 5pt 5pt 5pt;overflow:hidden;overflow-wrap:break-word;&quot;&gt;&lt;p dir=&quot;ltr&quot; style=&quot;line-height:1.2;margin-top:0pt;margin-bottom:0pt;&quot;&gt;&lt;span style=&quot;font-size: 12pt; font-family: Arial, sans-serif; color: rgb(0, 0, 0); background-color: transparent; font-weight: 400; font-style: normal; font-variant: normal; text-decoration: none; vertical-align: baseline;&quot;&gt;Lian&lt;/span&gt;&lt;/p&gt;&lt;/td&gt;&lt;td style=&quot;border-left:solid #000000 1pt;border-right:solid #000000 1pt;border-bottom:solid #000000 1pt;border-top:solid #000000 1pt;vertical-align:top;padding:5pt 5pt 5pt 5pt;overflow:hidden;overflow-wrap:break-word;&quot;&gt;&lt;p dir=&quot;ltr&quot; style=&quot;line-height:1.2;margin-top:0pt;margin-bottom:0pt;&quot;&gt;&lt;span style=&quot;font-size: 12pt; font-family: Arial, sans-serif; color: rgb(0, 0, 0); background-color: transparent; font-weight: 400; font-style: normal; font-variant: normal; text-decoration: none; vertical-align: baseline;&quot;&gt;13645876L&lt;/span&gt;&lt;/p&gt;&lt;/td&gt;&lt;td style=&quot;border-left:solid #000000 1pt;border-right:solid #000000 1pt;border-bottom:solid #000000 1pt;border-top:solid #000000 1pt;vertical-align:top;padding:5pt 5pt 5pt 5pt;overflow:hidden;overflow-wrap:break-word;&quot;&gt;&lt;p dir=&quot;ltr&quot; style=&quot;line-height:1.2;margin-top:0pt;margin-bottom:0pt;&quot;&gt;&lt;span style=&quot;font-size: 12pt; font-family: Arial, sans-serif; color: rgb(0, 0, 0); background-color: transparent; font-weight: 400; font-style: normal; font-variant: normal; text-decoration: none; vertical-align: baseline;&quot;&gt;no&lt;/span&gt;&lt;/p&gt;&lt;/td&gt;&lt;/tr&gt;&lt;tr style=&quot;height:46.39892578125pt&quot;&gt;&lt;td style=&quot;border-left:solid #000000 1pt;border-right:solid #000000 1pt;border-bottom:solid #000000 1pt;border-top:solid #000000 1pt;vertical-align:top;padding:5pt 5pt 5pt 5pt;overflow:hidden;overflow-wrap:break-word;&quot;&gt;&lt;p dir=&quot;ltr&quot; style=&quot;line-height:1.2;margin-top:0pt;margin-bottom:0pt;&quot;&gt;&lt;span style=&quot;font-size: 12pt; font-family: Arial, sans-serif; color: rgb(0, 0, 0); background-color: transparent; font-weight: 400; font-style: normal; font-variant: normal; text-decoration: none; vertical-align: baseline;&quot;&gt;53290736T&lt;/span&gt;&lt;/p&gt;&lt;/td&gt;&lt;td style=&quot;border-left:solid #000000 1pt;border-right:solid #000000 1pt;border-bottom:solid #000000 1pt;border-top:solid #000000 1pt;vertical-align:top;padding:5pt 5pt 5pt 5pt;overflow:hidden;overflow-wrap:break-word;&quot;&gt;&lt;p dir=&quot;ltr&quot; style=&quot;line-height:1.2;margin-top:0pt;margin-bottom:0pt;&quot;&gt;&lt;span style=&quot;font-size: 12pt; font-family: Arial, sans-serif; color: rgb(0, 0, 0); background-color: transparent; font-weight: 400; font-style: normal; font-variant: normal; text-decoration: none; vertical-align: baseline;&quot;&gt;4&lt;/span&gt;&lt;/p&gt;&lt;/td&gt;&lt;td style=&quot;border-left:solid #000000 1pt;border-right:solid #000000 1pt;border-bottom:solid #000000 1pt;border-top:solid #000000 1pt;vertical-align:top;padding:5pt 5pt 5pt 5pt;overflow:hidden;overflow-wrap:break-word;&quot;&gt;&lt;p dir=&quot;ltr&quot; style=&quot;line-height:1.2;margin-top:0pt;margin-bottom:0pt;&quot;&gt;&lt;span style=&quot;font-size: 12pt; font-family: Arial, sans-serif; color: rgb(0, 0, 0); background-color: transparent; font-weight: 400; font-style: normal; font-variant: normal; text-decoration: none; vertical-align: baseline;&quot;&gt;Taylor&lt;/span&gt;&lt;/p&gt;&lt;/td&gt;&lt;td style=&quot;border-left:solid #000000 1pt;border-right:solid #000000 1pt;border-bottom:solid #000000 1pt;border-top:solid #000000 1pt;vertical-align:top;padding:5pt 5pt 5pt 5pt;overflow:hidden;overflow-wrap:break-word;&quot;&gt;&lt;p dir=&quot;ltr&quot; style=&quot;line-height:1.2;margin-top:0pt;margin-bottom:0pt;&quot;&gt;&lt;span style=&quot;font-size: 12pt; font-family: Arial, sans-serif; color: rgb(0, 0, 0); background-color: transparent; font-weight: 400; font-style: normal; font-variant: normal; text-decoration: none; vertical-align: baseline;&quot;&gt;Ava&lt;/span&gt;&lt;/p&gt;&lt;/td&gt;&lt;td style=&quot;border-left:solid #000000 1pt;border-right:solid #000000 1pt;border-bottom:solid #000000 1pt;border-top:solid #000000 1pt;vertical-align:top;padding:5pt 5pt 5pt 5pt;overflow:hidden;overflow-wrap:break-word;&quot;&gt;&lt;p dir=&quot;ltr&quot; style=&quot;line-height:1.2;margin-top:0pt;margin-bottom:0pt;&quot;&gt;&lt;span style=&quot;font-size: 12pt; font-family: Arial, sans-serif; color: rgb(0, 0, 0); background-color: transparent; font-weight: 400; font-style: normal; font-variant: normal; text-decoration: none; vertical-align: baseline;&quot;&gt;30587246U&lt;/span&gt;&lt;/p&gt;&lt;/td&gt;&lt;td style=&quot;border-left:solid #000000 1pt;border-right:solid #000000 1pt;border-bottom:solid #000000 1pt;border-top:solid #000000 1pt;vertical-align:top;padding:5pt 5pt 5pt 5pt;overflow:hidden;overflow-wrap:break-word;&quot;&gt;&lt;p dir=&quot;ltr&quot; style=&quot;line-height:1.2;margin-top:0pt;margin-bottom:0pt;&quot;&gt;&lt;span style=&quot;font-size: 12pt; font-family: Arial, sans-serif; color: rgb(0, 0, 0); background-color: transparent; font-weight: 400; font-style: normal; font-variant: normal; text-decoration: none; vertical-align: baseline;&quot;&gt;no&lt;/span&gt;&lt;/p&gt;&lt;/td&gt;&lt;/tr&gt;&lt;tr style=&quot;height:9.896484375pt&quot;&gt;&lt;td style=&quot;border-left:solid #000000 1pt;border-right:solid #000000 1pt;border-bottom:solid #000000 1pt;border-top:solid #000000 1pt;vertical-align:top;padding:5pt 5pt 5pt 5pt;overflow:hidden;overflow-wrap:break-word;&quot;&gt;&lt;p dir=&quot;ltr&quot; style=&quot;line-height:1.2;margin-top:0pt;margin-bottom:0pt;&quot;&gt;&lt;span style=&quot;font-size: 12pt; font-family: Arial, sans-serif; color: rgb(0, 0, 0); background-color: transparent; font-weight: 400; font-style: normal; font-variant: normal; text-decoration: none; vertical-align: baseline;&quot;&gt;78654901K&lt;/span&gt;&lt;/p&gt;&lt;/td&gt;&lt;td style=&quot;border-left:solid #000000 1pt;border-right:solid #000000 1pt;border-bottom:solid #000000 1pt;border-top:solid #000000 1pt;vertical-align:top;padding:5pt 5pt 5pt 5pt;overflow:hidden;overflow-wrap:break-word;&quot;&gt;&lt;p dir=&quot;ltr&quot; style=&quot;line-height:1.2;margin-top:0pt;margin-bottom:0pt;&quot;&gt;&lt;span style=&quot;font-size: 12pt; font-family: Arial, sans-serif; color: rgb(0, 0, 0); background-color: transparent; font-weight: 400; font-style: normal; font-variant: normal; text-decoration: none; vertical-align: baseline;&quot;&gt;5&lt;/span&gt;&lt;/p&gt;&lt;/td&gt;&lt;td style=&quot;border-left:solid #000000 1pt;border-right:solid #000000 1pt;border-bottom:solid #000000 1pt;border-top:solid #000000 1pt;vertical-align:top;padding:5pt 5pt 5pt 5pt;overflow:hidden;overflow-wrap:break-word;&quot;&gt;&lt;p dir=&quot;ltr&quot; style=&quot;line-height:1.2;margin-top:0pt;margin-bottom:0pt;&quot;&gt;&lt;span style=&quot;font-size: 12pt; font-family: Arial, sans-serif; color: rgb(0, 0, 0); background-color: transparent; font-weight: 400; font-style: normal; font-variant: normal; text-decoration: none; vertical-align: baseline;&quot;&gt;Jackson&lt;/span&gt;&lt;/p&gt;&lt;/td&gt;&lt;td style=&quot;border-left:solid #000000 1pt;border-right:solid #000000 1pt;border-bottom:solid #000000 1pt;border-top:solid #000000 1pt;vertical-align:top;padding:5pt 5pt 5pt 5pt;overflow:hidden;overflow-wrap:break-word;&quot;&gt;&lt;p dir=&quot;ltr&quot; style=&quot;line-height:1.2;margin-top:0pt;margin-bottom:0pt;&quot;&gt;&lt;span style=&quot;font-size: 12pt; font-family: Arial, sans-serif; color: rgb(0, 0, 0); background-color: transparent; font-weight: 400; font-style: normal; font-variant: normal; text-decoration: none; vertical-align: baseline;&quot;&gt;Ethan&lt;/span&gt;&lt;/p&gt;&lt;/td&gt;&lt;td style=&quot;border-left:solid #000000 1pt;border-right:solid #000000 1pt;border-bottom:solid #000000 1pt;border-top:solid #000000 1pt;vertical-align:top;padding:5pt 5pt 5pt 5pt;overflow:hidden;overflow-wrap:break-word;&quot;&gt;&lt;p dir=&quot;ltr&quot; style=&quot;line-height:1.2;margin-top:0pt;margin-bottom:0pt;&quot;&gt;&lt;span style=&quot;font-size: 12pt; font-family: Arial, sans-serif; color: rgb(0, 0, 0); background-color: transparent; font-weight: 400; font-style: normal; font-variant: normal; text-decoration: none; vertical-align: baseline;&quot;&gt;8966546O&lt;/span&gt;&lt;/p&gt;&lt;/td&gt;&lt;td style=&quot;border-left:solid #000000 1pt;border-right:solid #000000 1pt;border-bottom:solid #000000 1pt;border-top:solid #000000 1pt;vertical-align:top;padding:5pt 5pt 5pt 5pt;overflow:hidden;overflow-wrap:break-word;&quot;&gt;&lt;p dir=&quot;ltr&quot; style=&quot;line-height:1.2;margin-top:0pt;margin-bottom:0pt;&quot;&gt;&lt;span style=&quot;font-size: 12pt; font-family: Arial, sans-serif; color: rgb(0, 0, 0); background-color: transparent; font-weight: 400; font-style: normal; font-variant: normal; text-decoration: none; vertical-align: baseline;&quot;&gt;si&lt;/span&gt;&lt;/p&gt;&lt;/td&gt;&lt;/tr&gt;&lt;/tbody&gt;&lt;/table&gt;&lt;/div&gt;&lt;br&gt;&lt;br&gt;&lt;div dir=&quot;ltr&quot; style=&quot;margin-left:0pt;&quot; align=&quot;center&quot;&gt;&lt;table style=&quot;border:none;border-collapse:collapse;&quot;&gt;&lt;colgroup&gt;&lt;col width=&quot;116&quot;&gt;&lt;col width=&quot;100&quot;&gt;&lt;col width=&quot;100&quot;&gt;&lt;col width=&quot;190&quot;&gt;&lt;col width=&quot;84&quot;&gt;&lt;col width=&quot;70&quot;&gt;&lt;col width=&quot;70&quot;&gt;&lt;col width=&quot;70&quot;&gt;&lt;col width=&quot;70&quot;&gt;&lt;col width=&quot;108&quot;&gt;&lt;col width=&quot;125&quot;&gt;&lt;col width=&quot;99&quot;&gt;&lt;col width=&quot;103&quot;&gt;&lt;col width=&quot;96&quot;&gt;&lt;col width=&quot;102&quot;&gt;&lt;col width=&quot;101&quot;&gt;&lt;col width=&quot;61&quot;&gt;&lt;col width=&quot;95&quot;&gt;&lt;col width=&quot;59&quot;&gt;&lt;col width=&quot;50&quot;&gt;&lt;col width=&quot;75&quot;&gt;&lt;col width=&quot;75&quot;&gt;&lt;col width=&quot;59&quot;&gt;&lt;col width=&quot;108&quot;&gt;&lt;col width=&quot;97&quot;&gt;&lt;col width=&quot;92&quot;&gt;&lt;col width=&quot;92&quot;&gt;&lt;col width=&quot;92&quot;&gt;&lt;/colgroup&gt;&lt;tbody&gt;&lt;tr style=&quot;height:0pt&quot;&gt;&lt;td style=&quot;border-left:solid #000000 1pt;border-right:solid #000000 1pt;border-bottom:solid #000000 1pt;border-top:solid #000000 1pt;vertical-align:top;background-color:#9fc5e8;padding:5pt 5pt 5pt 5pt;overflow:hidden;overflow-wrap:break-word;&quot;&gt;&lt;p dir=&quot;ltr&quot; style=&quot;line-height:1.2;margin-top:0pt;margin-bottom:0pt;&quot;&gt;&lt;span style=&quot;font-size: 11pt; font-family: Arial, sans-serif; color: rgb(0, 0, 0); background-color: rgb(159, 197, 232); font-weight: 700; font-style: normal; font-variant: normal; text-decoration: none; vertical-align: baseline;&quot;&gt;DNI Estudiante&lt;/span&gt;&lt;/p&gt;&lt;/td&gt;&lt;td style=&quot;border-left:solid #000000 1pt;border-right:solid #000000 1pt;border-bottom:solid #000000 1pt;border-top:solid #000000 1pt;vertical-align:top;background-color:#9fc5e8;padding:5pt 5pt 5pt 5pt;overflow:hidden;overflow-wrap:break-word;&quot;&gt;&lt;p dir=&quot;ltr&quot; style=&quot;line-height:1.2;margin-top:0pt;margin-bottom:0pt;&quot;&gt;&lt;span style=&quot;font-size: 11pt; font-family: Arial, sans-serif; color: rgb(0, 0, 0); background-color: rgb(159, 197, 232); font-weight: 700; font-style: normal; font-variant: normal; text-decoration: none; vertical-align: baseline;&quot;&gt;Nombre Estudiante&lt;/span&gt;&lt;/p&gt;&lt;/td&gt;&lt;td style=&quot;border-left:solid #000000 1pt;border-right:solid #000000 1pt;border-bottom:solid #000000 1pt;border-top:solid #000000 1pt;vertical-align:top;background-color:#9fc5e8;padding:5pt 5pt 5pt 5pt;overflow:hidden;overflow-wrap:break-word;&quot;&gt;&lt;p dir=&quot;ltr&quot; style=&quot;line-height:1.2;margin-top:0pt;margin-bottom:0pt;&quot;&gt;&lt;span style=&quot;font-size: 11pt; font-family: Arial, sans-serif; color: rgb(0, 0, 0); background-color: rgb(159, 197, 232); font-weight: 700; font-style: normal; font-variant: normal; text-decoration: none; vertical-align: baseline;&quot;&gt;Estudiante&lt;/span&gt;&lt;span style=&quot;font-size: 11pt; font-family: Arial, sans-serif; color: rgb(0, 0, 0); background-color: rgb(159, 197, 232); font-weight: 700; font-style: normal; font-variant: normal; text-decoration: none; vertical-align: baseline;&quot;&gt;&lt;br&gt;&lt;/span&gt;&lt;span style=&quot;font-size: 11pt; font-family: Arial, sans-serif; color: rgb(0, 0, 0); background-color: rgb(159, 197, 232); font-weight: 700; font-style: normal; font-variant: normal; text-decoration: none; vertical-align: baseline;&quot;&gt;Apellidos&lt;/span&gt;&lt;/p&gt;&lt;/td&gt;&lt;td style=&quot;border-left:solid #000000 1pt;border-right:solid #000000 1pt;border-bottom:solid #000000 1pt;border-top:solid #000000 1pt;vertical-align:top;background-color:#9fc5e8;padding:5pt 5pt 5pt 5pt;overflow:hidden;overflow-wrap:break-word;&quot;&gt;&lt;p dir=&quot;ltr&quot; style=&quot;line-height:1.2;margin-top:0pt;margin-bottom:0pt;&quot;&gt;&lt;span style=&quot;font-size: 11pt; font-family: Arial, sans-serif; color: rgb(0, 0, 0); background-color: rgb(159, 197, 232); font-weight: 700; font-style: normal; font-variant: normal; text-decoration: none; vertical-align: baseline;&quot;&gt; Emails Estudiante&amp;nbsp;&lt;/span&gt;&lt;/p&gt;&lt;/td&gt;&lt;td style=&quot;border-left:solid #000000 1pt;border-right:solid #000000 1pt;border-bottom:solid #000000 1pt;border-top:solid #000000 1pt;vertical-align:top;background-color:#9fc5e8;padding:5pt 5pt 5pt 5pt;overflow:hidden;overflow-wrap:break-word;&quot;&gt;&lt;p dir=&quot;ltr&quot; style=&quot;line-height:1.2;margin-top:0pt;margin-bottom:0pt;&quot;&gt;&lt;span style=&quot;font-size: 11pt; font-family: Arial, sans-serif; color: rgb(0, 0, 0); background-color: rgb(159, 197, 232); font-weight: 700; font-style: normal; font-variant: normal; text-decoration: none; vertical-align: baseline;&quot;&gt;Provincia&amp;nbsp;&lt;/span&gt;&lt;/p&gt;&lt;/td&gt;&lt;td style=&quot;border-left:solid #000000 1pt;border-right:solid #000000 1pt;border-bottom:solid #000000 1pt;border-top:solid #000000 1pt;vertical-align:top;background-color:#9fc5e8;padding:5pt 5pt 5pt 5pt;overflow:hidden;overflow-wrap:break-word;&quot;&gt;&lt;p dir=&quot;ltr&quot; style=&quot;line-height:1.2;margin-top:0pt;margin-bottom:0pt;&quot;&gt;&lt;span style=&quot;font-size: 11pt; font-family: Arial, sans-serif; color: rgb(0, 0, 0); background-color: rgb(159, 197, 232); font-weight: 700; font-style: normal; font-variant: normal; text-decoration: none; vertical-align: baseline;&quot;&gt;Número&lt;/span&gt;&lt;/p&gt;&lt;/td&gt;&lt;td style=&quot;border-left:solid #000000 1pt;border-right:solid #000000 1pt;border-bottom:solid #000000 1pt;border-top:solid #000000 1pt;vertical-align:top;background-color:#9fc5e8;padding:5pt 5pt 5pt 5pt;overflow:hidden;overflow-wrap:break-word;&quot;&gt;&lt;p dir=&quot;ltr&quot; style=&quot;line-height:1.2;margin-top:0pt;margin-bottom:0pt;&quot;&gt;&lt;span style=&quot;font-size: 11pt; font-family: Arial, sans-serif; color: rgb(0, 0, 0); background-color: rgb(159, 197, 232); font-weight: 700; font-style: normal; font-variant: normal; text-decoration: none; vertical-align: baseline;&quot;&gt;Código Postal&lt;/span&gt;&lt;/p&gt;&lt;/td&gt;&lt;td style=&quot;border-left:solid #000000 1pt;border-right:solid #000000 1pt;border-bottom:solid #000000 1pt;border-top:solid #000000 1pt;vertical-align:top;background-color:#9fc5e8;padding:5pt 5pt 5pt 5pt;overflow:hidden;overflow-wrap:break-word;&quot;&gt;&lt;p dir=&quot;ltr&quot; style=&quot;line-height:1.2;margin-top:0pt;margin-bottom:0pt;&quot;&gt;&lt;span style=&quot;font-size: 11pt; font-family: Arial, sans-serif; color: rgb(0, 0, 0); background-color: rgb(159, 197, 232); font-weight: 700; font-style: normal; font-variant: normal; text-decoration: none; vertical-align: baseline;&quot;&gt;Piso&amp;nbsp;&lt;/span&gt;&lt;/p&gt;&lt;/td&gt;&lt;td style=&quot;border-left:solid #000000 1pt;border-right:solid #000000 1pt;border-bottom:solid #000000 1pt;border-top:solid #000000 1pt;vertical-align:top;background-color:#9fc5e8;padding:5pt 5pt 5pt 5pt;overflow:hidden;overflow-wrap:break-word;&quot;&gt;&lt;p dir=&quot;ltr&quot; style=&quot;line-height:1.2;margin-top:0pt;margin-bottom:0pt;&quot;&gt;&lt;span style=&quot;font-size: 11pt; font-family: Arial, sans-serif; color: rgb(0, 0, 0); background-color: rgb(159, 197, 232); font-weight: 700; font-style: normal; font-variant: normal; text-decoration: none; vertical-align: baseline;&quot;&gt;Calle&lt;/span&gt;&lt;/p&gt;&lt;/td&gt;&lt;td style=&quot;border-left:solid #000000 1pt;border-right:solid #000000 1pt;border-bottom:solid #000000 1pt;border-top:solid #000000 1pt;vertical-align:top;background-color:#9fc5e8;padding:5pt 5pt 5pt 5pt;overflow:hidden;overflow-wrap:break-word;&quot;&gt;&lt;p dir=&quot;ltr&quot; style=&quot;line-height:1.2;margin-top:0pt;margin-bottom:0pt;&quot;&gt;&lt;span style=&quot;font-size: 11pt; font-family: Arial, sans-serif; color: rgb(0, 0, 0); background-color: rgb(159, 197, 232); font-weight: 700; font-style: normal; font-variant: normal; text-decoration: none; vertical-align: baseline;&quot;&gt;Municipio&lt;/span&gt;&lt;/p&gt;&lt;br&gt;&lt;/td&gt;&lt;/tr&gt;&lt;tr style=&quot;height:46.39892578125pt&quot;&gt;&lt;td style=&quot;border-left:solid #000000 1pt;border-right:solid #000000 1pt;border-bottom:solid #000000 1pt;border-top:solid #000000 1pt;vertical-align:top;padding:5pt 5pt 5pt 5pt;overflow:hidden;overflow-wrap:break-word;&quot;&gt;&lt;p dir=&quot;ltr&quot; style=&quot;line-height:1.2;margin-top:0pt;margin-bottom:0pt;&quot;&gt;&lt;span style=&quot;font-size: 12pt; font-family: Arial, sans-serif; color: rgb(0, 0, 0); background-color: transparent; font-weight: 400; font-style: normal; font-variant: normal; text-decoration: none; vertical-align: baseline;&quot;&gt;23467664H&lt;/span&gt;&lt;/p&gt;&lt;/td&gt;&lt;td style=&quot;border-left:solid #000000 1pt;border-right:solid #000000 1pt;border-bottom:solid #000000 1pt;border-top:solid #000000 1pt;vertical-align:top;padding:5pt 5pt 5pt 5pt;overflow:hidden;overflow-wrap:break-word;&quot;&gt;&lt;p dir=&quot;ltr&quot; style=&quot;line-height:1.2;margin-top:0pt;margin-bottom:0pt;&quot;&gt;&lt;span style=&quot;font-size: 12pt; font-family: Arial, sans-serif; color: rgb(0, 0, 0); background-color: transparent; font-weight: 400; font-style: normal; font-variant: normal; text-decoration: none; vertical-align: baseline;&quot;&gt;John&lt;/span&gt;&lt;/p&gt;&lt;/td&gt;&lt;td style=&quot;border-left:solid #000000 1pt;border-right:solid #000000 1pt;border-bottom:solid #000000 1pt;border-top:solid #000000 1pt;vertical-align:top;padding:5pt 5pt 5pt 5pt;overflow:hidden;overflow-wrap:break-word;&quot;&gt;&lt;p dir=&quot;ltr&quot; style=&quot;line-height:1.2;margin-top:0pt;margin-bottom:0pt;&quot;&gt;&lt;span style=&quot;font-size: 12pt; font-family: Arial, sans-serif; color: rgb(0, 0, 0); background-color: transparent; font-weight: 400; font-style: normal; font-variant: normal; text-decoration: none; vertical-align: baseline;&quot;&gt;Dou&lt;/span&gt;&lt;/p&gt;&lt;/td&gt;&lt;td style=&quot;border-left:solid #000000 1pt;border-right:solid #000000 1pt;border-bottom:solid #000000 1pt;border-top:solid #000000 1pt;vertical-align:top;padding:5pt 5pt 5pt 5pt;overflow:hidden;overflow-wrap:break-word;&quot;&gt;&lt;p dir=&quot;ltr&quot; style=&quot;line-height:1.2;margin-top:0pt;margin-bottom:0pt;&quot;&gt;&lt;a href=&quot;mailto:john.doe@example.com&quot; style=&quot;text-decoration:none;&quot;&gt;&lt;span style=&quot;font-size: 12pt; font-family: Arial, sans-serif; color: rgb(17, 85, 204); background-color: transparent; font-weight: 400; font-style: normal; font-variant: normal; text-decoration: underline; text-decoration-skip-ink: none; vertical-align: baseline;&quot;&gt;john.doe@example.com&lt;/span&gt;&lt;/a&gt;&lt;/p&gt;&lt;br&gt;&lt;/td&gt;&lt;td style=&quot;border-left:solid #000000 1pt;border-right:solid #000000 1pt;border-bottom:solid #000000 1pt;border-top:solid #000000 1pt;vertical-align:top;padding:5pt 5pt 5pt 5pt;overflow:hidden;overflow-wrap:break-word;&quot;&gt;&lt;p dir=&quot;ltr&quot; style=&quot;line-height:1.2;margin-top:0pt;margin-bottom:0pt;&quot;&gt;&lt;span style=&quot;font-size: 12pt; font-family: Arial, sans-serif; color: rgb(0, 0, 0); background-color: transparent; font-weight: 400; font-style: normal; font-variant: normal; text-decoration: none; vertical-align: baseline;&quot;&gt;USA&lt;/span&gt;&lt;/p&gt;&lt;/td&gt;&lt;td style=&quot;border-left:solid #000000 1pt;border-right:solid #000000 1pt;border-bottom:solid #000000 1pt;border-top:solid #000000 1pt;vertical-align:top;padding:5pt 5pt 5pt 5pt;overflow:hidden;overflow-wrap:break-word;&quot;&gt;&lt;p dir=&quot;ltr&quot; style=&quot;line-height:1.2;margin-top:0pt;margin-bottom:0pt;&quot;&gt;&lt;span style=&quot;font-size: 12pt; font-family: Arial, sans-serif; color: rgb(0, 0, 0); background-color: transparent; font-weight: 400; font-style: normal; font-variant: normal; text-decoration: none; vertical-align: baseline;&quot;&gt;123&lt;/span&gt;&lt;/p&gt;&lt;/td&gt;&lt;td style=&quot;border-left:solid #000000 1pt;border-right:solid #000000 1pt;border-bottom:solid #000000 1pt;border-top:solid #000000 1pt;vertical-align:top;padding:5pt 5pt 5pt 5pt;overflow:hidden;overflow-wrap:break-word;&quot;&gt;&lt;p dir=&quot;ltr&quot; style=&quot;line-height:1.2;margin-top:0pt;margin-bottom:0pt;&quot;&gt;&lt;span style=&quot;font-size: 12pt; font-family: Arial, sans-serif; color: rgb(0, 0, 0); background-color: transparent; font-weight: 400; font-style: normal; font-variant: normal; text-decoration: none; vertical-align: baseline;&quot;&gt;441211&lt;/span&gt;&lt;/p&gt;&lt;/td&gt;&lt;td style=&quot;border-left:solid #000000 1pt;border-right:solid #000000 1pt;border-bottom:solid #000000 1pt;border-top:solid #000000 1pt;vertical-align:top;padding:5pt 5pt 5pt 5pt;overflow:hidden;overflow-wrap:break-word;&quot;&gt;&lt;p dir=&quot;ltr&quot; style=&quot;line-height:1.2;margin-top:0pt;margin-bottom:0pt;&quot;&gt;&lt;span style=&quot;font-size: 12pt; font-family: Arial, sans-serif; color: rgb(0, 0, 0); background-color: transparent; font-weight: 400; font-style: normal; font-variant: normal; text-decoration: none; vertical-align: baseline;&quot;&gt;1º&lt;/span&gt;&lt;/p&gt;&lt;/td&gt;&lt;td style=&quot;border-left:solid #000000 1pt;border-right:solid #000000 1pt;border-bottom:solid #000000 1pt;border-top:solid #000000 1pt;vertical-align:top;padding:5pt 5pt 5pt 5pt;overflow:hidden;overflow-wrap:break-word;&quot;&gt;&lt;p dir=&quot;ltr&quot; style=&quot;line-height:1.2;margin-top:0pt;margin-bottom:0pt;&quot;&gt;&lt;span style=&quot;font-size: 12pt; font-family: Arial, sans-serif; color: rgb(0, 0, 0); background-color: transparent; font-weight: 400; font-style: normal; font-variant: normal; text-decoration: none; vertical-align: baseline;&quot;&gt;Main Street&lt;/span&gt;&lt;/p&gt;&lt;/td&gt;&lt;td style=&quot;border-left:solid #000000 1pt;border-right:solid #000000 1pt;border-bottom:solid #000000 1pt;border-top:solid #000000 1pt;vertical-align:top;padding:5pt 5pt 5pt 5pt;overflow:hidden;overflow-wrap:break-word;&quot;&gt;&lt;p dir=&quot;ltr&quot; style=&quot;line-height:1.2;margin-top:0pt;margin-bottom:0pt;&quot;&gt;&lt;span style=&quot;font-size: 12pt; font-family: Arial, sans-serif; color: rgb(0, 0, 0); background-color: transparent; font-weight: 400; font-style: normal; font-variant: normal; text-decoration: none; vertical-align: baseline;&quot;&gt;Springfield&lt;/span&gt;&lt;/p&gt;&lt;/td&gt;&lt;/tr&gt;&lt;tr style=&quot;height:46.39892578125pt&quot;&gt;&lt;td style=&quot;border-left:solid #000000 1pt;border-right:solid #000000 1pt;border-bottom:solid #000000 1pt;border-top:solid #000000 1pt;vertical-align:top;padding:5pt 5pt 5pt 5pt;overflow:hidden;overflow-wrap:break-word;&quot;&gt;&lt;p dir=&quot;ltr&quot; style=&quot;line-height:1.2;margin-top:0pt;margin-bottom:0pt;&quot;&gt;&lt;span style=&quot;font-size: 12pt; font-family: Arial, sans-serif; color: rgb(0, 0, 0); background-color: transparent; font-weight: 400; font-style: normal; font-variant: normal; text-decoration: none; vertical-align: baseline;&quot;&gt;23467664H&lt;/span&gt;&lt;/p&gt;&lt;/td&gt;&lt;td style=&quot;border-left:solid #000000 1pt;border-right:solid #000000 1pt;border-bottom:solid #000000 1pt;border-top:solid #000000 1pt;vertical-align:top;padding:5pt 5pt 5pt 5pt;overflow:hidden;overflow-wrap:break-word;&quot;&gt;&lt;p dir=&quot;ltr&quot; style=&quot;line-height:1.2;margin-top:0pt;margin-bottom:0pt;&quot;&gt;&lt;span style=&quot;font-size: 12pt; font-family: Arial, sans-serif; color: rgb(0, 0, 0); background-color: transparent; font-weight: 400; font-style: normal; font-variant: normal; text-decoration: none; vertical-align: baseline;&quot;&gt;John&lt;/span&gt;&lt;/p&gt;&lt;/td&gt;&lt;td style=&quot;border-left:solid #000000 1pt;border-right:solid #000000 1pt;border-bottom:solid #000000 1pt;border-top:solid #000000 1pt;vertical-align:top;padding:5pt 5pt 5pt 5pt;overflow:hidden;overflow-wrap:break-word;&quot;&gt;&lt;p dir=&quot;ltr&quot; style=&quot;line-height:1.2;margin-top:0pt;margin-bottom:0pt;&quot;&gt;&lt;span style=&quot;font-size: 12pt; font-family: Arial, sans-serif; color: rgb(0, 0, 0); background-color: transparent; font-weight: 400; font-style: normal; font-variant: normal; text-decoration: none; vertical-align: baseline;&quot;&gt;Dou&lt;/span&gt;&lt;/p&gt;&lt;/td&gt;&lt;td style=&quot;border-left:solid #000000 1pt;border-right:solid #000000 1pt;border-bottom:solid #000000 1pt;border-top:solid #000000 1pt;vertical-align:top;padding:5pt 5pt 5pt 5pt;overflow:hidden;overflow-wrap:break-word;&quot;&gt;&lt;p dir=&quot;ltr&quot; style=&quot;line-height:1.2;margin-top:0pt;margin-bottom:0pt;&quot;&gt;&lt;a href=&quot;mailto:alex.jones@yahoo.com&quot; style=&quot;text-decoration:none;&quot;&gt;&lt;span style=&quot;font-size: 12pt; font-family: Arial, sans-serif; color: rgb(17, 85, 204); background-color: transparent; font-weight: 400; font-style: normal; font-variant: normal; text-decoration: underline; text-decoration-skip-ink: none; vertical-align: baseline;&quot;&gt;alex.jones@yahoo.com&lt;/span&gt;&lt;/a&gt;&lt;span style=&quot;font-size: 12pt; font-family: Arial, sans-serif; color: rgb(0, 0, 0); background-color: transparent; font-weight: 400; font-style: normal; font-variant: normal; text-decoration: none; vertical-align: baseline;&quot;&gt;&amp;nbsp;&lt;/span&gt;&lt;/p&gt;&lt;/td&gt;&lt;td style=&quot;border-left:solid #000000 1pt;border-right:solid #000000 1pt;border-bottom:solid #000000 1pt;border-top:solid #000000 1pt;vertical-align:top;padding:5pt 5pt 5pt 5pt;overflow:hidden;overflow-wrap:break-word;&quot;&gt;&lt;p dir=&quot;ltr&quot; style=&quot;line-height:1.2;margin-top:0pt;margin-bottom:0pt;&quot;&gt;&lt;span style=&quot;font-size: 12pt; font-family: Arial, sans-serif; color: rgb(0, 0, 0); background-color: transparent; font-weight: 400; font-style: normal; font-variant: normal; text-decoration: none; vertical-align: baseline;&quot;&gt;USA&lt;/span&gt;&lt;/p&gt;&lt;/td&gt;&lt;td style=&quot;border-left:solid #000000 1pt;border-right:solid #000000 1pt;border-bottom:solid #000000 1pt;border-top:solid #000000 1pt;vertical-align:top;padding:5pt 5pt 5pt 5pt;overflow:hidden;overflow-wrap:break-word;&quot;&gt;&lt;p dir=&quot;ltr&quot; style=&quot;line-height:1.2;margin-top:0pt;margin-bottom:0pt;&quot;&gt;&lt;span style=&quot;font-size: 12pt; font-family: Arial, sans-serif; color: rgb(0, 0, 0); background-color: transparent; font-weight: 400; font-style: normal; font-variant: normal; text-decoration: none; vertical-align: baseline;&quot;&gt;123&lt;/span&gt;&lt;/p&gt;&lt;/td&gt;&lt;td style=&quot;border-left:solid #000000 1pt;border-right:solid #000000 1pt;border-bottom:solid #000000 1pt;border-top:solid #000000 1pt;vertical-align:top;padding:5pt 5pt 5pt 5pt;overflow:hidden;overflow-wrap:break-word;&quot;&gt;&lt;p dir=&quot;ltr&quot; style=&quot;line-height:1.2;margin-top:0pt;margin-bottom:0pt;&quot;&gt;&lt;span style=&quot;font-size: 12pt; font-family: Arial, sans-serif; color: rgb(0, 0, 0); background-color: transparent; font-weight: 400; font-style: normal; font-variant: normal; text-decoration: none; vertical-align: baseline;&quot;&gt;441211&lt;/span&gt;&lt;/p&gt;&lt;/td&gt;&lt;td style=&quot;border-left:solid #000000 1pt;border-right:solid #000000 1pt;border-bottom:solid #000000 1pt;border-top:solid #000000 1pt;vertical-align:top;padding:5pt 5pt 5pt 5pt;overflow:hidden;overflow-wrap:break-word;&quot;&gt;&lt;p dir=&quot;ltr&quot; style=&quot;line-height:1.2;margin-top:0pt;margin-bottom:0pt;&quot;&gt;&lt;span style=&quot;font-size: 12pt; font-family: Arial, sans-serif; color: rgb(0, 0, 0); background-color: transparent; font-weight: 400; font-style: normal; font-variant: normal; text-decoration: none; vertical-align: baseline;&quot;&gt;1º&lt;/span&gt;&lt;/p&gt;&lt;/td&gt;&lt;td style=&quot;border-left:solid #000000 1pt;border-right:solid #000000 1pt;border-bottom:solid #000000 1pt;border-top:solid #000000 1pt;vertical-align:top;padding:5pt 5pt 5pt 5pt;overflow:hidden;overflow-wrap:break-word;&quot;&gt;&lt;p dir=&quot;ltr&quot; style=&quot;line-height:1.2;margin-top:0pt;margin-bottom:0pt;&quot;&gt;&lt;span style=&quot;font-size: 12pt; font-family: Arial, sans-serif; color: rgb(0, 0, 0); background-color: transparent; font-weight: 400; font-style: normal; font-variant: normal; text-decoration: none; vertical-align: baseline;&quot;&gt;Main Street&lt;/span&gt;&lt;/p&gt;&lt;/td&gt;&lt;td style=&quot;border-left:solid #000000 1pt;border-right:solid #000000 1pt;border-bottom:solid #000000 1pt;border-top:solid #000000 1pt;vertical-align:top;padding:5pt 5pt 5pt 5pt;overflow:hidden;overflow-wrap:break-word;&quot;&gt;&lt;p dir=&quot;ltr&quot; style=&quot;line-height:1.2;margin-top:0pt;margin-bottom:0pt;&quot;&gt;&lt;span style=&quot;font-size: 12pt; font-family: Arial, sans-serif; color: rgb(0, 0, 0); background-color: transparent; font-weight: 400; font-style: normal; font-variant: normal; text-decoration: none; vertical-align: baseline;&quot;&gt;Springfield&lt;/span&gt;&lt;/p&gt;&lt;/td&gt;&lt;/tr&gt;&lt;tr style=&quot;height:46.39892578125pt&quot;&gt;&lt;td style=&quot;border-left:solid #000000 1pt;border-right:solid #000000 1pt;border-bottom:solid #000000 1pt;border-top:solid #000000 1pt;vertical-align:top;padding:5pt 5pt 5pt 5pt;overflow:hidden;overflow-wrap:break-word;&quot;&gt;&lt;p dir=&quot;ltr&quot; style=&quot;line-height:1.2;margin-top:0pt;margin-bottom:0pt;&quot;&gt;&lt;span style=&quot;font-size: 12pt; font-family: Arial, sans-serif; color: rgb(0, 0, 0); background-color: transparent; font-weight: 400; font-style: normal; font-variant: normal; text-decoration: none; vertical-align: baseline;&quot;&gt;576456321J&lt;/span&gt;&lt;/p&gt;&lt;/td&gt;&lt;td style=&quot;border-left:solid #000000 1pt;border-right:solid #000000 1pt;border-bottom:solid #000000 1pt;border-top:solid #000000 1pt;vertical-align:top;padding:5pt 5pt 5pt 5pt;overflow:hidden;overflow-wrap:break-word;&quot;&gt;&lt;p dir=&quot;ltr&quot; style=&quot;line-height:1.2;margin-top:0pt;margin-bottom:0pt;&quot;&gt;&lt;span style=&quot;font-size: 12pt; font-family: Arial, sans-serif; color: rgb(0, 0, 0); background-color: transparent; font-weight: 400; font-style: normal; font-variant: normal; text-decoration: none; vertical-align: baseline;&quot;&gt;Emily&lt;/span&gt;&lt;/p&gt;&lt;/td&gt;&lt;td style=&quot;border-left:solid #000000 1pt;border-right:solid #000000 1pt;border-bottom:solid #000000 1pt;border-top:solid #000000 1pt;vertical-align:top;padding:5pt 5pt 5pt 5pt;overflow:hidden;overflow-wrap:break-word;&quot;&gt;&lt;p dir=&quot;ltr&quot; style=&quot;line-height:1.2;margin-top:0pt;margin-bottom:0pt;&quot;&gt;&lt;span style=&quot;font-size: 12pt; font-family: Arial, sans-serif; color: rgb(0, 0, 0); background-color: transparent; font-weight: 400; font-style: normal; font-variant: normal; text-decoration: none; vertical-align: baseline;&quot;&gt;Lee&lt;/span&gt;&lt;/p&gt;&lt;/td&gt;&lt;td style=&quot;border-left:solid #000000 1pt;border-right:solid #000000 1pt;border-bottom:solid #000000 1pt;border-top:solid #000000 1pt;vertical-align:top;padding:5pt 5pt 5pt 5pt;overflow:hidden;overflow-wrap:break-word;&quot;&gt;&lt;p dir=&quot;ltr&quot; style=&quot;line-height:1.2;margin-top:0pt;margin-bottom:0pt;&quot;&gt;&lt;a href=&quot;mailto:emily.smith@gmail.com&quot; style=&quot;text-decoration:none;&quot;&gt;&lt;span style=&quot;font-size: 12pt; font-family: Arial, sans-serif; color: rgb(17, 85, 204); background-color: transparent; font-weight: 400; font-style: normal; font-variant: normal; text-decoration: underline; text-decoration-skip-ink: none; vertical-align: baseline;&quot;&gt;emily.smith@gmail.com&lt;/span&gt;&lt;/a&gt;&lt;/p&gt;&lt;/td&gt;&lt;td style=&quot;border-left:solid #000000 1pt;border-right:solid #000000 1pt;border-bottom:solid #000000 1pt;border-top:solid #000000 1pt;vertical-align:top;padding:5pt 5pt 5pt 5pt;overflow:hidden;overflow-wrap:break-word;&quot;&gt;&lt;p dir=&quot;ltr&quot; style=&quot;line-height:1.2;margin-top:0pt;margin-bottom:0pt;&quot;&gt;&lt;span style=&quot;font-size: 12pt; font-family: Arial, sans-serif; color: rgb(0, 0, 0); background-color: transparent; font-weight: 400; font-style: normal; font-variant: normal; text-decoration: none; vertical-align: baseline;&quot;&gt;Canadá&lt;/span&gt;&lt;/p&gt;&lt;/td&gt;&lt;td style=&quot;border-left:solid #000000 1pt;border-right:solid #000000 1pt;border-bottom:solid #000000 1pt;border-top:solid #000000 1pt;vertical-align:top;padding:5pt 5pt 5pt 5pt;overflow:hidden;overflow-wrap:break-word;&quot;&gt;&lt;p dir=&quot;ltr&quot; style=&quot;line-height:1.2;margin-top:0pt;margin-bottom:0pt;&quot;&gt;&lt;span style=&quot;font-size: 12pt; font-family: Arial, sans-serif; color: rgb(0, 0, 0); background-color: transparent; font-weight: 400; font-style: normal; font-variant: normal; text-decoration: none; vertical-align: baseline;&quot;&gt;456&lt;/span&gt;&lt;/p&gt;&lt;/td&gt;&lt;td style=&quot;border-left:solid #000000 1pt;border-right:solid #000000 1pt;border-bottom:solid #000000 1pt;border-top:solid #000000 1pt;vertical-align:top;padding:5pt 5pt 5pt 5pt;overflow:hidden;overflow-wrap:break-word;&quot;&gt;&lt;p dir=&quot;ltr&quot; style=&quot;line-height:1.2;margin-top:0pt;margin-bottom:0pt;&quot;&gt;&lt;span style=&quot;font-size: 12pt; font-family: Arial, sans-serif; color: rgb(0, 0, 0); background-color: transparent; font-weight: 400; font-style: normal; font-variant: normal; text-decoration: none; vertical-align: baseline;&quot;&gt;00177&lt;/span&gt;&lt;/p&gt;&lt;/td&gt;&lt;td style=&quot;border-left:solid #000000 1pt;border-right:solid #000000 1pt;border-bottom:solid #000000 1pt;border-top:solid #000000 1pt;vertical-align:top;padding:5pt 5pt 5pt 5pt;overflow:hidden;overflow-wrap:break-word;&quot;&gt;&lt;p dir=&quot;ltr&quot; style=&quot;line-height:1.2;margin-top:0pt;margin-bottom:0pt;&quot;&gt;&lt;span style=&quot;font-size: 12pt; font-family: Arial, sans-serif; color: rgb(0, 0, 0); background-color: transparent; font-weight: 400; font-style: normal; font-variant: normal; text-decoration: none; vertical-align: baseline;&quot;&gt;9º&lt;/span&gt;&lt;/p&gt;&lt;/td&gt;&lt;td style=&quot;border-left:solid #000000 1pt;border-right:solid #000000 1pt;border-bottom:solid #000000 1pt;border-top:solid #000000 1pt;vertical-align:top;padding:5pt 5pt 5pt 5pt;overflow:hidden;overflow-wrap:break-word;&quot;&gt;&lt;p dir=&quot;ltr&quot; style=&quot;line-height:1.2;margin-top:0pt;margin-bottom:0pt;&quot;&gt;&lt;span style=&quot;font-size: 12pt; font-family: Arial, sans-serif; color: rgb(0, 0, 0); background-color: transparent; font-weight: 400; font-style: normal; font-variant: normal; text-decoration: none; vertical-align: baseline;&quot;&gt;Oak Avenue&lt;/span&gt;&lt;/p&gt;&lt;/td&gt;&lt;td style=&quot;border-left:solid #000000 1pt;border-right:solid #000000 1pt;border-bottom:solid #000000 1pt;border-top:solid #000000 1pt;vertical-align:top;padding:5pt 5pt 5pt 5pt;overflow:hidden;overflow-wrap:break-word;&quot;&gt;&lt;p dir=&quot;ltr&quot; style=&quot;line-height:1.2;margin-top:0pt;margin-bottom:0pt;&quot;&gt;&lt;span style=&quot;font-size: 12pt; font-family: Arial, sans-serif; color: rgb(0, 0, 0); background-color: transparent; font-weight: 400; font-style: normal; font-variant: normal; text-decoration: none; vertical-align: baseline;&quot;&gt;Willowville&lt;/span&gt;&lt;/p&gt;&lt;/td&gt;&lt;/tr&gt;&lt;tr style=&quot;height:46.39892578125pt&quot;&gt;&lt;td style=&quot;border-left:solid #000000 1pt;border-right:solid #000000 1pt;border-bottom:solid #000000 1pt;border-top:solid #000000 1pt;vertical-align:top;padding:5pt 5pt 5pt 5pt;overflow:hidden;overflow-wrap:break-word;&quot;&gt;&lt;p dir=&quot;ltr&quot; style=&quot;line-height:1.2;margin-top:0pt;margin-bottom:0pt;&quot;&gt;&lt;span style=&quot;font-size: 12pt; font-family: Arial, sans-serif; color: rgb(0, 0, 0); background-color: transparent; font-weight: 400; font-style: normal; font-variant: normal; text-decoration: none; vertical-align: baseline;&quot;&gt;576456321J&lt;/span&gt;&lt;/p&gt;&lt;/td&gt;&lt;td style=&quot;border-left:solid #000000 1pt;border-right:solid #000000 1pt;border-bottom:solid #000000 1pt;border-top:solid #000000 1pt;vertical-align:top;padding:5pt 5pt 5pt 5pt;overflow:hidden;overflow-wrap:break-word;&quot;&gt;&lt;p dir=&quot;ltr&quot; style=&quot;line-height:1.2;margin-top:0pt;margin-bottom:0pt;&quot;&gt;&lt;span style=&quot;font-size: 12pt; font-family: Arial, sans-serif; color: rgb(0, 0, 0); background-color: transparent; font-weight: 400; font-style: normal; font-variant: normal; text-decoration: none; vertical-align: baseline;&quot;&gt;Emily&lt;/span&gt;&lt;/p&gt;&lt;/td&gt;&lt;td style=&quot;border-left:solid #000000 1pt;border-right:solid #000000 1pt;border-bottom:solid #000000 1pt;border-top:solid #000000 1pt;vertical-align:top;padding:5pt 5pt 5pt 5pt;overflow:hidden;overflow-wrap:break-word;&quot;&gt;&lt;p dir=&quot;ltr&quot; style=&quot;line-height:1.2;margin-top:0pt;margin-bottom:0pt;&quot;&gt;&lt;span style=&quot;font-size: 12pt; font-family: Arial, sans-serif; color: rgb(0, 0, 0); background-color: transparent; font-weight: 400; font-style: normal; font-variant: normal; text-decoration: none; vertical-align: baseline;&quot;&gt;Lee&lt;/span&gt;&lt;/p&gt;&lt;/td&gt;&lt;td style=&quot;border-left:solid #000000 1pt;border-right:solid #000000 1pt;border-bottom:solid #000000 1pt;border-top:solid #000000 1pt;vertical-align:top;padding:5pt 5pt 5pt 5pt;overflow:hidden;overflow-wrap:break-word;&quot;&gt;&lt;p dir=&quot;ltr&quot; style=&quot;line-height:1.2;margin-top:0pt;margin-bottom:0pt;&quot;&gt;&lt;a href=&quot;mailto:lisa.miller@hotmail.com&quot; style=&quot;text-decoration:none;&quot;&gt;&lt;span style=&quot;font-size: 12pt; font-family: Arial, sans-serif; color: rgb(17, 85, 204); background-color: transparent; font-weight: 400; font-style: normal; font-variant: normal; text-decoration: underline; text-decoration-skip-ink: none; vertical-align: baseline;&quot;&gt;lisa.miller@hotmail.com&lt;/span&gt;&lt;/a&gt;&lt;/p&gt;&lt;/td&gt;&lt;td style=&quot;border-left:solid #000000 1pt;border-right:solid #000000 1pt;border-bottom:solid #000000 1pt;border-top:solid #000000 1pt;vertical-align:top;padding:5pt 5pt 5pt 5pt;overflow:hidden;overflow-wrap:break-word;&quot;&gt;&lt;p dir=&quot;ltr&quot; style=&quot;line-height:1.2;margin-top:0pt;margin-bottom:0pt;&quot;&gt;&lt;span style=&quot;font-size: 12pt; font-family: Arial, sans-serif; color: rgb(0, 0, 0); background-color: transparent; font-weight: 400; font-style: normal; font-variant: normal; text-decoration: none; vertical-align: baseline;&quot;&gt;Canadá&lt;/span&gt;&lt;/p&gt;&lt;/td&gt;&lt;td style=&quot;border-left:solid #000000 1pt;border-right:solid #000000 1pt;border-bottom:solid #000000 1pt;border-top:solid #000000 1pt;vertical-align:top;padding:5pt 5pt 5pt 5pt;overflow:hidden;overflow-wrap:break-word;&quot;&gt;&lt;p dir=&quot;ltr&quot; style=&quot;line-height:1.2;margin-top:0pt;margin-bottom:0pt;&quot;&gt;&lt;span style=&quot;font-size: 12pt; font-family: Arial, sans-serif; color: rgb(0, 0, 0); background-color: transparent; font-weight: 400; font-style: normal; font-variant: normal; text-decoration: none; vertical-align: baseline;&quot;&gt;456&lt;/span&gt;&lt;/p&gt;&lt;/td&gt;&lt;td style=&quot;border-left:solid #000000 1pt;border-right:solid #000000 1pt;border-bottom:solid #000000 1pt;border-top:solid #000000 1pt;vertical-align:top;padding:5pt 5pt 5pt 5pt;overflow:hidden;overflow-wrap:break-word;&quot;&gt;&lt;p dir=&quot;ltr&quot; style=&quot;line-height:1.2;margin-top:0pt;margin-bottom:0pt;&quot;&gt;&lt;span style=&quot;font-size: 12pt; font-family: Arial, sans-serif; color: rgb(0, 0, 0); background-color: transparent; font-weight: 400; font-style: normal; font-variant: normal; text-decoration: none; vertical-align: baseline;&quot;&gt;00177&lt;/span&gt;&lt;/p&gt;&lt;/td&gt;&lt;td style=&quot;border-left:solid #000000 1pt;border-right:solid #000000 1pt;border-bottom:solid #000000 1pt;border-top:solid #000000 1pt;vertical-align:top;padding:5pt 5pt 5pt 5pt;overflow:hidden;overflow-wrap:break-word;&quot;&gt;&lt;p dir=&quot;ltr&quot; style=&quot;line-height:1.2;margin-top:0pt;margin-bottom:0pt;&quot;&gt;&lt;span style=&quot;font-size: 12pt; font-family: Arial, sans-serif; color: rgb(0, 0, 0); background-color: transparent; font-weight: 400; font-style: normal; font-variant: normal; text-decoration: none; vertical-align: baseline;&quot;&gt;9º&lt;/span&gt;&lt;/p&gt;&lt;/td&gt;&lt;td style=&quot;border-left:solid #000000 1pt;border-right:solid #000000 1pt;border-bottom:solid #000000 1pt;border-top:solid #000000 1pt;vertical-align:top;padding:5pt 5pt 5pt 5pt;overflow:hidden;overflow-wrap:break-word;&quot;&gt;&lt;p dir=&quot;ltr&quot; style=&quot;line-height:1.2;margin-top:0pt;margin-bottom:0pt;&quot;&gt;&lt;span style=&quot;font-size: 12pt; font-family: Arial, sans-serif; color: rgb(0, 0, 0); background-color: transparent; font-weight: 400; font-style: normal; font-variant: normal; text-decoration: none; vertical-align: baseline;&quot;&gt;Oak Avenue&lt;/span&gt;&lt;/p&gt;&lt;/td&gt;&lt;td style=&quot;border-left:solid #000000 1pt;border-right:solid #000000 1pt;border-bottom:solid #000000 1pt;border-top:solid #000000 1pt;vertical-align:top;padding:5pt 5pt 5pt 5pt;overflow:hidden;overflow-wrap:break-word;&quot;&gt;&lt;p dir=&quot;ltr&quot; style=&quot;line-height:1.2;margin-top:0pt;margin-bottom:0pt;&quot;&gt;&lt;span style=&quot;font-size: 12pt; font-family: Arial, sans-serif; color: rgb(0, 0, 0); background-color: transparent; font-weight: 400; font-style: normal; font-variant: normal; text-decoration: none; vertical-align: baseline;&quot;&gt;Willowville&lt;/span&gt;&lt;/p&gt;&lt;/td&gt;&lt;/tr&gt;&lt;tr style=&quot;height:46.39892578125pt&quot;&gt;&lt;td style=&quot;border-left:solid #000000 1pt;border-right:solid #000000 1pt;border-bottom:solid #000000 1pt;border-top:solid #000000 1pt;vertical-align:top;padding:5pt 5pt 5pt 5pt;overflow:hidden;overflow-wrap:break-word;&quot;&gt;&lt;p dir=&quot;ltr&quot; style=&quot;line-height:1.2;margin-top:0pt;margin-bottom:0pt;&quot;&gt;&lt;span style=&quot;font-size: 12pt; font-family: Arial, sans-serif; color: rgb(0, 0, 0); background-color: transparent; font-weight: 400; font-style: normal; font-variant: normal; text-decoration: none; vertical-align: baseline;&quot;&gt;576456321J&lt;/span&gt;&lt;/p&gt;&lt;/td&gt;&lt;td style=&quot;border-left:solid #000000 1pt;border-right:solid #000000 1pt;border-bottom:solid #000000 1pt;border-top:solid #000000 1pt;vertical-align:top;padding:5pt 5pt 5pt 5pt;overflow:hidden;overflow-wrap:break-word;&quot;&gt;&lt;p dir=&quot;ltr&quot; style=&quot;line-height:1.2;margin-top:0pt;margin-bottom:0pt;&quot;&gt;&lt;span style=&quot;font-size: 12pt; font-family: Arial, sans-serif; color: rgb(0, 0, 0); background-color: transparent; font-weight: 400; font-style: normal; font-variant: normal; text-decoration: none; vertical-align: baseline;&quot;&gt;Emily&lt;/span&gt;&lt;/p&gt;&lt;/td&gt;&lt;td style=&quot;border-left:solid #000000 1pt;border-right:solid #000000 1pt;border-bottom:solid #000000 1pt;border-top:solid #000000 1pt;vertical-align:top;padding:5pt 5pt 5pt 5pt;overflow:hidden;overflow-wrap:break-word;&quot;&gt;&lt;p dir=&quot;ltr&quot; style=&quot;line-height:1.2;margin-top:0pt;margin-bottom:0pt;&quot;&gt;&lt;span style=&quot;font-size: 12pt; font-family: Arial, sans-serif; color: rgb(0, 0, 0); background-color: transparent; font-weight: 400; font-style: normal; font-variant: normal; text-decoration: none; vertical-align: baseline;&quot;&gt;Lee&lt;/span&gt;&lt;/p&gt;&lt;/td&gt;&lt;td style=&quot;border-left:solid #000000 1pt;border-right:solid #000000 1pt;border-bottom:solid #000000 1pt;border-top:solid #000000 1pt;vertical-align:top;padding:5pt 5pt 5pt 5pt;overflow:hidden;overflow-wrap:break-word;&quot;&gt;&lt;p dir=&quot;ltr&quot; style=&quot;line-height:1.2;margin-top:0pt;margin-bottom:0pt;&quot;&gt;&lt;a href=&quot;mailto:lia.mer@hotmail.com&quot; style=&quot;text-decoration:none;&quot;&gt;&lt;span style=&quot;font-size: 12pt; font-family: Arial, sans-serif; color: rgb(17, 85, 204); background-color: transparent; font-weight: 400; font-style: normal; font-variant: normal; text-decoration: underline; text-decoration-skip-ink: none; vertical-align: baseline;&quot;&gt;lia.mer@hotmail.com&lt;/span&gt;&lt;/a&gt;&lt;span style=&quot;font-size: 12pt; font-family: Arial, sans-serif; color: rgb(0, 0, 0); background-color: transparent; font-weight: 400; font-style: normal; font-variant: normal; text-decoration: none; vertical-align: baseline;&quot;&gt;&amp;nbsp;&lt;/span&gt;&lt;/p&gt;&lt;/td&gt;&lt;td style=&quot;border-left:solid #000000 1pt;border-right:solid #000000 1pt;border-bottom:solid #000000 1pt;border-top:solid #000000 1pt;vertical-align:top;padding:5pt 5pt 5pt 5pt;overflow:hidden;overflow-wrap:break-word;&quot;&gt;&lt;p dir=&quot;ltr&quot; style=&quot;line-height:1.2;margin-top:0pt;margin-bottom:0pt;&quot;&gt;&lt;span style=&quot;font-size: 12pt; font-family: Arial, sans-serif; color: rgb(0, 0, 0); background-color: transparent; font-weight: 400; font-style: normal; font-variant: normal; text-decoration: none; vertical-align: baseline;&quot;&gt;Canadá&lt;/span&gt;&lt;/p&gt;&lt;/td&gt;&lt;td style=&quot;border-left:solid #000000 1pt;border-right:solid #000000 1pt;border-bottom:solid #000000 1pt;border-top:solid #000000 1pt;vertical-align:top;padding:5pt 5pt 5pt 5pt;overflow:hidden;overflow-wrap:break-word;&quot;&gt;&lt;p dir=&quot;ltr&quot; style=&quot;line-height:1.2;margin-top:0pt;margin-bottom:0pt;&quot;&gt;&lt;span style=&quot;font-size: 12pt; font-family: Arial, sans-serif; color: rgb(0, 0, 0); background-color: transparent; font-weight: 400; font-style: normal; font-variant: normal; text-decoration: none; vertical-align: baseline;&quot;&gt;456&lt;/span&gt;&lt;/p&gt;&lt;/td&gt;&lt;td style=&quot;border-left:solid #000000 1pt;border-right:solid #000000 1pt;border-bottom:solid #000000 1pt;border-top:solid #000000 1pt;vertical-align:top;padding:5pt 5pt 5pt 5pt;overflow:hidden;overflow-wrap:break-word;&quot;&gt;&lt;p dir=&quot;ltr&quot; style=&quot;line-height:1.2;margin-top:0pt;margin-bottom:0pt;&quot;&gt;&lt;span style=&quot;font-size: 12pt; font-family: Arial, sans-serif; color: rgb(0, 0, 0); background-color: transparent; font-weight: 400; font-style: normal; font-variant: normal; text-decoration: none; vertical-align: baseline;&quot;&gt;00177&lt;/span&gt;&lt;/p&gt;&lt;/td&gt;&lt;td style=&quot;border-left:solid #000000 1pt;border-right:solid #000000 1pt;border-bottom:solid #000000 1pt;border-top:solid #000000 1pt;vertical-align:top;padding:5pt 5pt 5pt 5pt;overflow:hidden;overflow-wrap:break-word;&quot;&gt;&lt;p dir=&quot;ltr&quot; style=&quot;line-height:1.2;margin-top:0pt;margin-bottom:0pt;&quot;&gt;&lt;span style=&quot;font-size: 12pt; font-family: Arial, sans-serif; color: rgb(0, 0, 0); background-color: transparent; font-weight: 400; font-style: normal; font-variant: normal; text-decoration: none; vertical-align: baseline;&quot;&gt;9º&lt;/span&gt;&lt;/p&gt;&lt;/td&gt;&lt;td style=&quot;border-left:solid #000000 1pt;border-right:solid #000000 1pt;border-bottom:solid #000000 1pt;border-top:solid #000000 1pt;vertical-align:top;padding:5pt 5pt 5pt 5pt;overflow:hidden;overflow-wrap:break-word;&quot;&gt;&lt;p dir=&quot;ltr&quot; style=&quot;line-height:1.2;margin-top:0pt;margin-bottom:0pt;&quot;&gt;&lt;span style=&quot;font-size: 12pt; font-family: Arial, sans-serif; color: rgb(0, 0, 0); background-color: transparent; font-weight: 400; font-style: normal; font-variant: normal; text-decoration: none; vertical-align: baseline;&quot;&gt;Oak Avenue&lt;/span&gt;&lt;/p&gt;&lt;/td&gt;&lt;td style=&quot;border-left:solid #000000 1pt;border-right:solid #000000 1pt;border-bottom:solid #000000 1pt;border-top:solid #000000 1pt;vertical-align:top;padding:5pt 5pt 5pt 5pt;overflow:hidden;overflow-wrap:break-word;&quot;&gt;&lt;p dir=&quot;ltr&quot; style=&quot;line-height:1.2;margin-top:0pt;margin-bottom:0pt;&quot;&gt;&lt;span style=&quot;font-size: 12pt; font-family: Arial, sans-serif; color: rgb(0, 0, 0); background-color: transparent; font-weight: 400; font-style: normal; font-variant: normal; text-decoration: none; vertical-align: baseline;&quot;&gt;Willowville&lt;/span&gt;&lt;/p&gt;&lt;/td&gt;&lt;/tr&gt;&lt;tr style=&quot;height:46.39892578125pt&quot;&gt;&lt;td style=&quot;border-left:solid #000000 1pt;border-right:solid #000000 1pt;border-bottom:solid #000000 1pt;border-top:solid #000000 1pt;vertical-align:top;padding:5pt 5pt 5pt 5pt;overflow:hidden;overflow-wrap:break-word;&quot;&gt;&lt;p dir=&quot;ltr&quot; style=&quot;line-height:1.2;margin-top:9pt;margin-bottom:0pt;&quot;&gt;&lt;span style=&quot;font-size: 12pt; font-family: Arial, sans-serif; color: rgb(17, 17, 17); background-color: transparent; font-weight: 400; font-style: normal; font-variant: normal; text-decoration: none; vertical-align: baseline;&quot;&gt;87654321B&lt;/span&gt;&lt;/p&gt;&lt;/td&gt;&lt;td style=&quot;border-left:solid #000000 1pt;border-right:solid #000000 1pt;border-bottom:solid #000000 1pt;border-top:solid #000000 1pt;vertical-align:top;padding:5pt 5pt 5pt 5pt;overflow:hidden;overflow-wrap:break-word;&quot;&gt;&lt;p dir=&quot;ltr&quot; style=&quot;line-height:1.2;margin-top:0pt;margin-bottom:0pt;&quot;&gt;&lt;span style=&quot;font-size: 12pt; font-family: Arial, sans-serif; color: rgb(0, 0, 0); background-color: transparent; font-weight: 400; font-style: normal; font-variant: normal; text-decoration: none; vertical-align: baseline;&quot;&gt;Chris&lt;/span&gt;&lt;/p&gt;&lt;/td&gt;&lt;td style=&quot;border-left:solid #000000 1pt;border-right:solid #000000 1pt;border-bottom:solid #000000 1pt;border-top:solid #000000 1pt;vertical-align:top;padding:5pt 5pt 5pt 5pt;overflow:hidden;overflow-wrap:break-word;&quot;&gt;&lt;p dir=&quot;ltr&quot; style=&quot;line-height:1.2;margin-top:0pt;margin-bottom:0pt;&quot;&gt;&lt;span style=&quot;font-size: 12pt; font-family: Arial, sans-serif; color: rgb(0, 0, 0); background-color: transparent; font-weight: 400; font-style: normal; font-variant: normal; text-decoration: none; vertical-align: baseline;&quot;&gt;La&lt;/span&gt;&lt;/p&gt;&lt;/td&gt;&lt;td style=&quot;border-left:solid #000000 1pt;border-right:solid #000000 1pt;border-bottom:solid #000000 1pt;border-top:solid #000000 1pt;vertical-align:top;padding:5pt 5pt 5pt 5pt;overflow:hidden;overflow-wrap:break-word;&quot;&gt;&lt;p dir=&quot;ltr&quot; style=&quot;line-height:1.2;margin-top:0pt;margin-bottom:0pt;&quot;&gt;&lt;a href=&quot;mailto:chris.wilson@outlook.com&quot; style=&quot;text-decoration:none;&quot;&gt;&lt;span style=&quot;font-size: 12pt; font-family: Arial, sans-serif; color: rgb(17, 85, 204); background-color: transparent; font-weight: 400; font-style: normal; font-variant: normal; text-decoration: underline; text-decoration-skip-ink: none; vertical-align: baseline;&quot;&gt;chris.wilson@outlook.com&lt;/span&gt;&lt;/a&gt;&lt;span style=&quot;font-size: 12pt; font-family: Arial, sans-serif; color: rgb(0, 0, 0); background-color: transparent; font-weight: 400; font-style: normal; font-variant: normal; text-decoration: none; vertical-align: baseline;&quot;&gt;&amp;nbsp;&lt;/span&gt;&lt;/p&gt;&lt;/td&gt;&lt;td style=&quot;border-left:solid #000000 1pt;border-right:solid #000000 1pt;border-bottom:solid #000000 1pt;border-top:solid #000000 1pt;vertical-align:top;padding:5pt 5pt 5pt 5pt;overflow:hidden;overflow-wrap:break-word;&quot;&gt;&lt;p dir=&quot;ltr&quot; style=&quot;line-height:1.2;margin-top:0pt;margin-bottom:0pt;&quot;&gt;&lt;span style=&quot;font-size: 12pt; font-family: Arial, sans-serif; color: rgb(0, 0, 0); background-color: transparent; font-weight: 400; font-style: normal; font-variant: normal; text-decoration: none; vertical-align: baseline;&quot;&gt;Australia&lt;/span&gt;&lt;/p&gt;&lt;/td&gt;&lt;td style=&quot;border-left:solid #000000 1pt;border-right:solid #000000 1pt;border-bottom:solid #000000 1pt;border-top:solid #000000 1pt;vertical-align:top;padding:5pt 5pt 5pt 5pt;overflow:hidden;overflow-wrap:break-word;&quot;&gt;&lt;p dir=&quot;ltr&quot; style=&quot;line-height:1.2;margin-top:0pt;margin-bottom:0pt;&quot;&gt;&lt;span style=&quot;font-size: 12pt; font-family: Arial, sans-serif; color: rgb(0, 0, 0); background-color: transparent; font-weight: 400; font-style: normal; font-variant: normal; text-decoration: none; vertical-align: baseline;&quot;&gt;789&lt;/span&gt;&lt;/p&gt;&lt;/td&gt;&lt;td style=&quot;border-left:solid #000000 1pt;border-right:solid #000000 1pt;border-bottom:solid #000000 1pt;border-top:solid #000000 1pt;vertical-align:top;padding:5pt 5pt 5pt 5pt;overflow:hidden;overflow-wrap:break-word;&quot;&gt;&lt;p dir=&quot;ltr&quot; style=&quot;line-height:1.2;margin-top:0pt;margin-bottom:0pt;&quot;&gt;&lt;span style=&quot;font-size: 12pt; font-family: Arial, sans-serif; color: rgb(0, 0, 0); background-color: transparent; font-weight: 400; font-style: normal; font-variant: normal; text-decoration: none; vertical-align: baseline;&quot;&gt;99122&lt;/span&gt;&lt;/p&gt;&lt;/td&gt;&lt;td style=&quot;border-left:solid #000000 1pt;border-right:solid #000000 1pt;border-bottom:solid #000000 1pt;border-top:solid #000000 1pt;vertical-align:top;padding:5pt 5pt 5pt 5pt;overflow:hidden;overflow-wrap:break-word;&quot;&gt;&lt;p dir=&quot;ltr&quot; style=&quot;line-height:1.2;margin-top:0pt;margin-bottom:0pt;&quot;&gt;&lt;span style=&quot;font-size: 12pt; font-family: Arial, sans-serif; color: rgb(0, 0, 0); background-color: transparent; font-weight: 400; font-style: normal; font-variant: normal; text-decoration: none; vertical-align: baseline;&quot;&gt;9º&lt;/span&gt;&lt;/p&gt;&lt;/td&gt;&lt;td style=&quot;border-left:solid #000000 1pt;border-right:solid #000000 1pt;border-bottom:solid #000000 1pt;border-top:solid #000000 1pt;vertical-align:top;padding:5pt 5pt 5pt 5pt;overflow:hidden;overflow-wrap:break-word;&quot;&gt;&lt;p dir=&quot;ltr&quot; style=&quot;line-height:1.2;margin-top:0pt;margin-bottom:0pt;&quot;&gt;&lt;span style=&quot;font-size: 12pt; font-family: Arial, sans-serif; color: rgb(0, 0, 0); background-color: transparent; font-weight: 400; font-style: normal; font-variant: normal; text-decoration: none; vertical-align: baseline;&quot;&gt;Pine Lane&lt;/span&gt;&lt;/p&gt;&lt;/td&gt;&lt;td style=&quot;border-left:solid #000000 1pt;border-right:solid #000000 1pt;border-bottom:solid #000000 1pt;border-top:solid #000000 1pt;vertical-align:top;padding:5pt 5pt 5pt 5pt;overflow:hidden;overflow-wrap:break-word;&quot;&gt;&lt;p dir=&quot;ltr&quot; style=&quot;line-height:1.2;margin-top:0pt;margin-bottom:0pt;&quot;&gt;&lt;span style=&quot;font-size: 12pt; font-family: Arial, sans-serif; color: rgb(0, 0, 0); background-color: transparent; font-weight: 400; font-style: normal; font-variant: normal; text-decoration: none; vertical-align: baseline;&quot;&gt;Meadows Town&lt;/span&gt;&lt;/p&gt;&lt;/td&gt;&lt;/tr&gt;&lt;tr style=&quot;height:46.39892578125pt&quot;&gt;&lt;td style=&quot;border-left:solid #000000 1pt;border-right:solid #000000 1pt;border-bottom:solid #000000 1pt;border-top:solid #000000 1pt;vertical-align:top;padding:5pt 5pt 5pt 5pt;overflow:hidden;overflow-wrap:break-word;&quot;&gt;&lt;p dir=&quot;ltr&quot; style=&quot;line-height:1.2;margin-top:0pt;margin-bottom:0pt;&quot;&gt;&lt;span style=&quot;font-size: 12pt; font-family: Arial, sans-serif; color: rgb(0, 0, 0); background-color: transparent; font-weight: 400; font-style: normal; font-variant: normal; text-decoration: none; vertical-align: baseline;&quot;&gt;53290736T&lt;/span&gt;&lt;/p&gt;&lt;/td&gt;&lt;td style=&quot;border-left:solid #000000 1pt;border-right:solid #000000 1pt;border-bottom:solid #000000 1pt;border-top:solid #000000 1pt;vertical-align:top;padding:5pt 5pt 5pt 5pt;overflow:hidden;overflow-wrap:break-word;&quot;&gt;&lt;p dir=&quot;ltr&quot; style=&quot;line-height:1.2;margin-top:0pt;margin-bottom:0pt;&quot;&gt;&lt;span style=&quot;font-size: 12pt; font-family: Arial, sans-serif; color: rgb(0, 0, 0); background-color: transparent; font-weight: 400; font-style: normal; font-variant: normal; text-decoration: none; vertical-align: baseline;&quot;&gt;Michael&lt;/span&gt;&lt;/p&gt;&lt;/td&gt;&lt;td style=&quot;border-left:solid #000000 1pt;border-right:solid #000000 1pt;border-bottom:solid #000000 1pt;border-top:solid #000000 1pt;vertical-align:top;padding:5pt 5pt 5pt 5pt;overflow:hidden;overflow-wrap:break-word;&quot;&gt;&lt;p dir=&quot;ltr&quot; style=&quot;line-height:1.2;margin-top:0pt;margin-bottom:0pt;&quot;&gt;&lt;span style=&quot;font-size: 12pt; font-family: Arial, sans-serif; color: rgb(0, 0, 0); background-color: transparent; font-weight: 400; font-style: normal; font-variant: normal; text-decoration: none; vertical-align: baseline;&quot;&gt;Bradley&lt;/span&gt;&lt;/p&gt;&lt;/td&gt;&lt;td style=&quot;border-left:solid #000000 1pt;border-right:solid #000000 1pt;border-bottom:solid #000000 1pt;border-top:solid #000000 1pt;vertical-align:top;padding:5pt 5pt 5pt 5pt;overflow:hidden;overflow-wrap:break-word;&quot;&gt;&lt;p dir=&quot;ltr&quot; style=&quot;line-height:1.2;margin-top:0pt;margin-bottom:0pt;&quot;&gt;&lt;span style=&quot;font-size: 12pt; font-family: Arial, sans-serif; color: rgb(0, 0, 0); background-color: rgb(52, 53, 65); font-weight: 400; font-style: normal; font-variant: normal; text-decoration: none; vertical-align: baseline;&quot;&gt; &lt;/span&gt;&lt;a href=&quot;mailto:michael.taylor@gmail.com&quot; style=&quot;text-decoration:none;&quot;&gt;&lt;span style=&quot;font-size: 12pt; font-family: Arial, sans-serif; color: rgb(17, 85, 204); background-color: transparent; font-weight: 400; font-style: normal; font-variant: normal; text-decoration: underline; text-decoration-skip-ink: none; vertical-align: baseline;&quot;&gt;michael.taylor@gmail.com&lt;/span&gt;&lt;/a&gt;&lt;span style=&quot;font-size: 12pt; font-family: Arial, sans-serif; color: rgb(0, 0, 0); background-color: transparent; font-weight: 400; font-style: normal; font-variant: normal; text-decoration: none; vertical-align: baseline;&quot;&gt;&amp;nbsp;&lt;/span&gt;&lt;/p&gt;&lt;/td&gt;&lt;td style=&quot;border-left:solid #000000 1pt;border-right:solid #000000 1pt;border-bottom:solid #000000 1pt;border-top:solid #000000 1pt;vertical-align:top;padding:5pt 5pt 5pt 5pt;overflow:hidden;overflow-wrap:break-word;&quot;&gt;&lt;p dir=&quot;ltr&quot; style=&quot;line-height:1.2;margin-top:0pt;margin-bottom:0pt;&quot;&gt;&lt;span style=&quot;font-size: 12pt; font-family: Arial, sans-serif; color: rgb(0, 0, 0); background-color: transparent; font-weight: 400; font-style: normal; font-variant: normal; text-decoration: none; vertical-align: baseline;&quot;&gt;Reino Unido&lt;/span&gt;&lt;/p&gt;&lt;/td&gt;&lt;td style=&quot;border-left:solid #000000 1pt;border-right:solid #000000 1pt;border-bottom:solid #000000 1pt;border-top:solid #000000 1pt;vertical-align:top;padding:5pt 5pt 5pt 5pt;overflow:hidden;overflow-wrap:break-word;&quot;&gt;&lt;p dir=&quot;ltr&quot; style=&quot;line-height:1.2;margin-top:0pt;margin-bottom:0pt;&quot;&gt;&lt;span style=&quot;font-size: 12pt; font-family: Arial, sans-serif; color: rgb(0, 0, 0); background-color: transparent; font-weight: 400; font-style: normal; font-variant: normal; text-decoration: none; vertical-align: baseline;&quot;&gt;101&lt;/span&gt;&lt;/p&gt;&lt;/td&gt;&lt;td style=&quot;border-left:solid #000000 1pt;border-right:solid #000000 1pt;border-bottom:solid #000000 1pt;border-top:solid #000000 1pt;vertical-align:top;padding:5pt 5pt 5pt 5pt;overflow:hidden;overflow-wrap:break-word;&quot;&gt;&lt;p dir=&quot;ltr&quot; style=&quot;line-height:1.2;margin-top:0pt;margin-bottom:0pt;&quot;&gt;&lt;span style=&quot;font-size: 12pt; font-family: Arial, sans-serif; color: rgb(0, 0, 0); background-color: transparent; font-weight: 400; font-style: normal; font-variant: normal; text-decoration: none; vertical-align: baseline;&quot;&gt;22155&lt;/span&gt;&lt;/p&gt;&lt;/td&gt;&lt;td style=&quot;border-left:solid #000000 1pt;border-right:solid #000000 1pt;border-bottom:solid #000000 1pt;border-top:solid #000000 1pt;vertical-align:top;padding:5pt 5pt 5pt 5pt;overflow:hidden;overflow-wrap:break-word;&quot;&gt;&lt;p dir=&quot;ltr&quot; style=&quot;line-height:1.2;margin-top:0pt;margin-bottom:0pt;&quot;&gt;&lt;span style=&quot;font-size: 12pt; font-family: Arial, sans-serif; color: rgb(0, 0, 0); background-color: transparent; font-weight: 400; font-style: normal; font-variant: normal; text-decoration: none; vertical-align: baseline;&quot;&gt;7º&lt;/span&gt;&lt;/p&gt;&lt;/td&gt;&lt;td style=&quot;border-left:solid #000000 1pt;border-right:solid #000000 1pt;border-bottom:solid #000000 1pt;border-top:solid #000000 1pt;vertical-align:top;padding:5pt 5pt 5pt 5pt;overflow:hidden;overflow-wrap:break-word;&quot;&gt;&lt;p dir=&quot;ltr&quot; style=&quot;line-height:1.2;margin-top:0pt;margin-bottom:0pt;&quot;&gt;&lt;span style=&quot;font-size: 12pt; font-family: Arial, sans-serif; color: rgb(0, 0, 0); background-color: transparent; font-weight: 400; font-style: normal; font-variant: normal; text-decoration: none; vertical-align: baseline;&quot;&gt;Elm Street&lt;/span&gt;&lt;/p&gt;&lt;/td&gt;&lt;td style=&quot;border-left:solid #000000 1pt;border-right:solid #000000 1pt;border-bottom:solid #000000 1pt;border-top:solid #000000 1pt;vertical-align:top;padding:5pt 5pt 5pt 5pt;overflow:hidden;overflow-wrap:break-word;&quot;&gt;&lt;p dir=&quot;ltr&quot; style=&quot;line-height:1.2;margin-top:0pt;margin-bottom:0pt;&quot;&gt;&lt;span style=&quot;font-size: 12pt; font-family: Arial, sans-serif; color: rgb(0, 0, 0); background-color: transparent; font-weight: 400; font-style: normal; font-variant: normal; text-decoration: none; vertical-align: baseline;&quot;&gt;Lakeside&lt;/span&gt;&lt;/p&gt;&lt;/td&gt;&lt;/tr&gt;&lt;tr style=&quot;height:0pt&quot;&gt;&lt;td style=&quot;border-left:solid #000000 1pt;border-right:solid #000000 1pt;border-bottom:solid #000000 1pt;border-top:solid #000000 1pt;vertical-align:top;padding:5pt 5pt 5pt 5pt;overflow:hidden;overflow-wrap:break-word;&quot;&gt;&lt;p dir=&quot;ltr&quot; style=&quot;line-height:1.2;margin-top:0pt;margin-bottom:0pt;&quot;&gt;&lt;span style=&quot;font-size: 12pt; font-family: Arial, sans-serif; color: rgb(0, 0, 0); background-color: transparent; font-weight: 400; font-style: normal; font-variant: normal; text-decoration: none; vertical-align: baseline;&quot;&gt;78654901K&lt;/span&gt;&lt;/p&gt;&lt;/td&gt;&lt;td style=&quot;border-left:solid #000000 1pt;border-right:solid #000000 1pt;border-bottom:solid #000000 1pt;border-top:solid #000000 1pt;vertical-align:top;padding:5pt 5pt 5pt 5pt;overflow:hidden;overflow-wrap:break-word;&quot;&gt;&lt;p dir=&quot;ltr&quot; style=&quot;line-height:1.2;margin-top:0pt;margin-bottom:0pt;&quot;&gt;&lt;span style=&quot;font-size: 12pt; font-family: Arial, sans-serif; color: rgb(0, 0, 0); background-color: transparent; font-weight: 400; font-style: normal; font-variant: normal; text-decoration: none; vertical-align: baseline;&quot;&gt;Sarah&lt;/span&gt;&lt;/p&gt;&lt;/td&gt;&lt;td style=&quot;border-left:solid #000000 1pt;border-right:solid #000000 1pt;border-bottom:solid #000000 1pt;border-top:solid #000000 1pt;vertical-align:top;padding:5pt 5pt 5pt 5pt;overflow:hidden;overflow-wrap:break-word;&quot;&gt;&lt;p dir=&quot;ltr&quot; style=&quot;line-height:1.2;margin-top:0pt;margin-bottom:0pt;&quot;&gt;&lt;span style=&quot;font-size: 12pt; font-family: Arial, sans-serif; color: rgb(0, 0, 0); background-color: transparent; font-weight: 400; font-style: normal; font-variant: normal; text-decoration: none; vertical-align: baseline;&quot;&gt;Tranv&lt;/span&gt;&lt;/p&gt;&lt;/td&gt;&lt;td style=&quot;border-left:solid #000000 1pt;border-right:solid #000000 1pt;border-bottom:solid #000000 1pt;border-top:solid #000000 1pt;vertical-align:top;padding:5pt 5pt 5pt 5pt;overflow:hidden;overflow-wrap:break-word;&quot;&gt;&lt;p dir=&quot;ltr&quot; style=&quot;line-height:1.2;margin-top:0pt;margin-bottom:0pt;&quot;&gt;&lt;a href=&quot;mailto:sarah.jackson@yahoo.com&quot; style=&quot;text-decoration:none;&quot;&gt;&lt;span style=&quot;font-size: 12pt; font-family: Arial, sans-serif; color: rgb(17, 85, 204); background-color: transparent; font-weight: 400; font-style: normal; font-variant: normal; text-decoration: underline; text-decoration-skip-ink: none; vertical-align: baseline;&quot;&gt;sarah.jackson@yahoo.com&lt;/span&gt;&lt;/a&gt;&lt;span style=&quot;font-size: 12pt; font-family: Arial, sans-serif; color: rgb(0, 0, 0); background-color: transparent; font-weight: 400; font-style: normal; font-variant: normal; text-decoration: none; vertical-align: baseline;&quot;&gt;&amp;nbsp;&lt;/span&gt;&lt;/p&gt;&lt;/td&gt;&lt;td style=&quot;border-left:solid #000000 1pt;border-right:solid #000000 1pt;border-bottom:solid #000000 1pt;border-top:solid #000000 1pt;vertical-align:top;padding:5pt 5pt 5pt 5pt;overflow:hidden;overflow-wrap:break-word;&quot;&gt;&lt;p dir=&quot;ltr&quot; style=&quot;line-height:1.2;margin-top:0pt;margin-bottom:0pt;&quot;&gt;&lt;span style=&quot;font-size: 12pt; font-family: Arial, sans-serif; color: rgb(0, 0, 0); background-color: transparent; font-weight: 400; font-style: normal; font-variant: normal; text-decoration: none; vertical-align: baseline;&quot;&gt;Nueva Zelanda&lt;/span&gt;&lt;/p&gt;&lt;/td&gt;&lt;td style=&quot;border-left:solid #000000 1pt;border-right:solid #000000 1pt;border-bottom:solid #000000 1pt;border-top:solid #000000 1pt;vertical-align:top;padding:5pt 5pt 5pt 5pt;overflow:hidden;overflow-wrap:break-word;&quot;&gt;&lt;p dir=&quot;ltr&quot; style=&quot;line-height:1.2;margin-top:0pt;margin-bottom:0pt;&quot;&gt;&lt;span style=&quot;font-size: 12pt; font-family: Arial, sans-serif; color: rgb(0, 0, 0); background-color: transparent; font-weight: 400; font-style: normal; font-variant: normal; text-decoration: none; vertical-align: baseline;&quot;&gt;234&lt;/span&gt;&lt;/p&gt;&lt;/td&gt;&lt;td style=&quot;border-left:solid #000000 1pt;border-right:solid #000000 1pt;border-bottom:solid #000000 1pt;border-top:solid #000000 1pt;vertical-align:top;padding:5pt 5pt 5pt 5pt;overflow:hidden;overflow-wrap:break-word;&quot;&gt;&lt;p dir=&quot;ltr&quot; style=&quot;line-height:1.2;margin-top:0pt;margin-bottom:0pt;&quot;&gt;&lt;span style=&quot;font-size: 12pt; font-family: Arial, sans-serif; color: rgb(0, 0, 0); background-color: transparent; font-weight: 400; font-style: normal; font-variant: normal; text-decoration: none; vertical-align: baseline;&quot;&gt;44766&lt;/span&gt;&lt;/p&gt;&lt;/td&gt;&lt;td style=&quot;border-left:solid #000000 1pt;border-right:solid #000000 1pt;border-bottom:solid #000000 1pt;border-top:solid #000000 1pt;vertical-align:top;padding:5pt 5pt 5pt 5pt;overflow:hidden;overflow-wrap:break-word;&quot;&gt;&lt;p dir=&quot;ltr&quot; style=&quot;line-height:1.2;margin-top:0pt;margin-bottom:0pt;&quot;&gt;&lt;span style=&quot;font-size: 12pt; font-family: Arial, sans-serif; color: rgb(0, 0, 0); background-color: transparent; font-weight: 400; font-style: normal; font-variant: normal; text-decoration: none; vertical-align: baseline;&quot;&gt;1º&lt;/span&gt;&lt;/p&gt;&lt;/td&gt;&lt;td style=&quot;border-left:solid #000000 1pt;border-right:solid #000000 1pt;border-bottom:solid #000000 1pt;border-top:solid #000000 1pt;vertical-align:top;padding:5pt 5pt 5pt 5pt;overflow:hidden;overflow-wrap:break-word;&quot;&gt;&lt;p dir=&quot;ltr&quot; style=&quot;line-height:1.2;margin-top:0pt;margin-bottom:0pt;&quot;&gt;&lt;span style=&quot;font-size: 12pt; font-family: Arial, sans-serif; color: rgb(0, 0, 0); background-color: transparent; font-weight: 400; font-style: normal; font-variant: normal; text-decoration: none; vertical-align: baseline;&quot;&gt;Maple Drive&lt;/span&gt;&lt;/p&gt;&lt;/td&gt;&lt;td style=&quot;border-left:solid #000000 1pt;border-right:solid #000000 1pt;border-bottom:solid #000000 1pt;border-top:solid #000000 1pt;vertical-align:top;padding:5pt 5pt 5pt 5pt;overflow:hidden;overflow-wrap:break-word;&quot;&gt;&lt;p dir=&quot;ltr&quot; style=&quot;line-height:1.2;margin-top:0pt;margin-bottom:0pt;&quot;&gt;&lt;span style=&quot;font-size: 12pt; font-family: Arial, sans-serif; color: rgb(0, 0, 0); background-color: transparent; font-weight: 400; font-style: normal; font-variant: normal; text-decoration: none; vertical-align: baseline;&quot;&gt;Mountainview&lt;/span&gt;&lt;/p&gt;&lt;/td&gt;&lt;/tr&gt;&lt;/tbody&gt;&lt;/table&gt;&lt;/div&gt;&lt;/b&gt;" style="text;whiteSpace=wrap;html=1;fillColor=default;" vertex="1" parent="1">
          <mxGeometry x="530" y="70" width="1050" height="1230" as="geometry" />
        </mxCell>
      </root>
    </mxGraphModel>
  </diagram>
</mxfile>
